<svg xmlns="http://www.w3.org/2000/svg" width="37.68022" height="18.92142" viewBox="0 0 37.68022 18.92142"><defs><style>.cls-1{fill:#fff;opacity:0.8;}</style></defs><title>Icon-Botton-Arrows</title><g id="Layer_2" data-name="Layer 2"><g id="Home_section" data-name="Home section"><path class="cls-1" d="M26.75762.2295c1.65234,1.36633,3.32519,2.8,4.94384,4.18616,1.65747,1.42017,3.37133,2.88831,5.0559,4.27881l.92285.76208-.9104.77014c-.115.09851-6.71776,5.74109-9.999,8.46423a.99995.99995,0,1,1-1.27734-1.53882c2.55542-2.12109,7.13891-6.02417,9.07469-7.67615C33.17,8.30738,31.76592,7.10474,30.4,5.9347c-1.61133-1.381-3.27832-2.80884-4.91674-4.16418A.99986.99986,0,0,1,26.75762.2295Z"/><path class="cls-1" d="M14.19755.2295c1.65234,1.36633,3.32519,2.8,4.94384,4.18616,1.65747,1.42017,3.37133,2.88831,5.0559,4.27881l.92285.76208-.9104.77014c-.115.09851-6.71776,5.74109-9.999,8.46423a.99995.99995,0,1,1-1.27734-1.53882C15.48881,15.031,20.0723,11.12794,22.00809,9.476,20.6099,8.30738,19.20585,7.10474,17.83988,5.9347c-1.61133-1.381-3.27832-2.80884-4.91674-4.16418A.99986.99986,0,0,1,14.19755.2295Z"/><path class="cls-1" d="M1.63748.2295c1.65234,1.36633,3.32519,2.8,4.94384,4.18616C8.23879,5.83582,9.95265,7.304,11.63722,8.69446l.92285.76208-.9104.77014c-.115.09851-6.71776,5.74109-9.999,8.46423A.99995.99995,0,1,1,.37332,17.15211C2.92874,15.031,7.51223,11.12794,9.448,9.476,8.04982,8.30738,6.64577,7.10474,5.27981,5.9347,3.66848,4.55372,2.00149,3.12586.36307,1.77051A.99986.99986,0,0,1,1.63748.2295Z"/></g></g></svg>