<svg xmlns="http://www.w3.org/2000/svg" width="500" height="80" viewBox="0 0 500 80"><defs><style>.cls-1{fill:#00a4e6;}.cls-2{font-size:26px;font-family:Lato-Medium, Lato;}.cls-2,.cls-7{fill:#fff;}.cls-3{letter-spacing:-0.00699em;}.cls-4{letter-spacing:-0.00002em;}.cls-5{letter-spacing:-0.00648em;}.cls-6{letter-spacing:-0.02096em;}.cls-7{opacity:0.8;}</style></defs><title>Button-Home-section-Comanda-Destinatar</title><g id="Layer_2" data-name="Layer 2"><g id="Home_section" data-name="Home section"><rect class="cls-1" width="500" height="80" rx="39.99996" ry="39.99996"/><text class="cls-2" transform="translate(80.00162 47.63043)"><tspan class="cls-3">D</tspan><tspan class="cls-4" x="19.59131" y="0">estin</tspan><tspan class="cls-5" x="75.39941" y="0">a</tspan><tspan x="88.21777" y="0">ta</tspan><tspan class="cls-6" x="110.61621" y="0">r</tspan></text><path class="cls-7" d="M405.15552,30.76874c1.65234,1.36633,3.32519,2.8,4.94384,4.18616,1.65747,1.42017,3.37133,2.88831,5.0559,4.27881l.92285.76208-.9104.77014c-.115.09851-6.71776,5.74109-9.999,8.46423a.99995.99995,0,1,1-1.27734-1.53882c2.55542-2.12109,7.13891-6.02417,9.07469-7.67615-1.39819-1.16858-2.80224-2.37122-4.16821-3.54126-1.61133-1.381-3.27832-2.80884-4.91674-4.16418a.99986.99986,0,0,1,1.27441-1.541Z"/><path class="cls-7" d="M392.59544,30.76874c1.65234,1.36633,3.32519,2.8,4.94384,4.18616,1.65747,1.42017,3.37133,2.88831,5.0559,4.27881l.92285.76208-.9104.77014c-.115.09851-6.71776,5.74109-9.999,8.46423a.99995.99995,0,1,1-1.27734-1.53882c2.55542-2.12109,7.13891-6.02417,9.07469-7.67615-1.39819-1.16858-2.80224-2.37122-4.16821-3.54126-1.61133-1.381-3.27832-2.80884-4.91674-4.16418a.99986.99986,0,0,1,1.27441-1.541Z"/><path class="cls-7" d="M380.03537,30.76874c1.65234,1.36633,3.32519,2.8,4.94384,4.18616,1.65747,1.42017,3.37133,2.88831,5.0559,4.27881l.92285.76208-.9104.77014c-.115.09851-6.71776,5.74109-9.999,8.46423a.99995.99995,0,1,1-1.27734-1.53882c2.55542-2.12109,7.13891-6.02417,9.07469-7.67615-1.39819-1.16858-2.80224-2.37122-4.16821-3.54126-1.61133-1.381-3.27832-2.80884-4.91674-4.16418a.99986.99986,0,0,1,1.27441-1.541Z"/></g></g></svg>