<svg xmlns="http://www.w3.org/2000/svg" width="500" height="80" viewBox="0 0 500 80"><defs><style>.cls-1{fill:#011821;}.cls-2{font-size:26px;font-family:Lato-Medium, Lato;}.cls-2,.cls-5{fill:#fff;}.cls-3{letter-spacing:-0.1075em;}.cls-4{letter-spacing:-0.003em;}.cls-5{opacity:0.8;}</style></defs><title>Button-Contact-Trimite</title><g id="Layer_2" data-name="Layer 2"><g id="Contact"><rect class="cls-1" width="500" height="80" rx="39.99996" ry="39.99996"/><text class="cls-2" transform="translate(89.13823 47.63111)"><tspan class="cls-3">T</tspan><tspan x="12.62256" y="0">rimi</tspan><tspan class="cls-4" x="56.30225" y="0">t</tspan><tspan x="65.63623" y="0">e</tspan></text><path class="cls-5" d="M415.99776,30.76953c1.65234,1.36633,3.32519,2.8,4.94384,4.18616,1.65747,1.42017,3.37133,2.88831,5.0559,4.27881l.92285.76208-.9104.77014c-.115.09851-6.71776,5.74109-9.999,8.46423a.99995.99995,0,1,1-1.27734-1.53882C417.289,45.571,421.87251,41.668,423.8083,40.016c-1.39819-1.16858-2.80224-2.37122-4.16821-3.54126-1.61133-1.381-3.27832-2.80884-4.91674-4.16418a.99986.99986,0,0,1,1.27441-1.541Z"/><path class="cls-5" d="M403.43769,30.76953c1.65234,1.36633,3.32519,2.8,4.94384,4.18616,1.65747,1.42017,3.37133,2.88831,5.0559,4.27881l.92285.76208-.9104.77014c-.115.09851-6.71776,5.74109-9.999,8.46423a.99995.99995,0,1,1-1.27734-1.53882c2.55542-2.12109,7.13891-6.02417,9.07469-7.67615C409.85,38.84741,408.446,37.64477,407.08,36.47473c-1.61133-1.381-3.27832-2.80884-4.91674-4.16418a.99986.99986,0,0,1,1.27441-1.541Z"/><path class="cls-5" d="M390.87762,30.76953c1.65234,1.36633,3.32519,2.8,4.94384,4.18616,1.65747,1.42017,3.37133,2.88831,5.0559,4.27881l.92285.76208-.9104.77014c-.115.09851-6.71776,5.74109-9.999,8.46423a.99995.99995,0,1,1-1.27734-1.53882c2.55542-2.12109,7.13891-6.02417,9.07469-7.67615-1.39819-1.16858-2.80224-2.37122-4.16821-3.54126-1.61133-1.381-3.27832-2.80884-4.91674-4.16418a.99986.99986,0,0,1,1.27441-1.541Z"/></g></g></svg>