<svg xmlns="http://www.w3.org/2000/svg" width="600" height="100" viewBox="0 0 600 100"><defs><style>.cls-1{fill:#f15a24;}.cls-2{font-size:36px;font-family:Lato-Bold, Lato;font-weight:700;}.cls-2,.cls-4{fill:#fff;}.cls-3{letter-spacing:-0.021em;}</style></defs><title>Button-Home-section</title><g id="Layer_2" data-name="Layer 2"><g id="Home_section" data-name="Home section"><rect class="cls-1" width="600" height="100" rx="49.99995" ry="49.99995"/><text class="cls-2" transform="translate(159.55704 60.37652)">Cheamă un curie<tspan class="cls-3" x="267.58496" y="0">r</tspan></text><path class="cls-4" d="M531.25269,35a15,15,0,1,0,15,15A15,15,0,0,0,531.25269,35ZM540.484,46.634c-1.36633,1.65234-2.8,3.32519-4.18616,4.94384-1.42017,1.65747-2.88831,3.37133-4.27881,5.0559l-.76209.92285-.77014-.9104c-.09851-.115-5.74109-6.71776-8.46423-9.999a.99995.99995,0,1,1,1.53882-1.27734c2.12109,2.55542,6.02417,7.13891,7.67615,9.07469,1.16858-1.39819,2.37122-2.80224,3.54126-4.16821,1.381-1.61133,2.80884-3.27832,4.16418-4.91674a.99986.99986,0,0,1,1.541,1.27441Z"/></g></g></svg>