<svg xmlns="http://www.w3.org/2000/svg" width="30" height="30" viewBox="0 0 30 30"><defs><style>.cls-1{fill:#fff;}</style></defs><title>Icon-Button-Arrow-Down</title><g id="Layer_2" data-name="Layer 2"><g id="Home_section" data-name="Home section"><path class="cls-1" d="M15,0A15,15,0,1,0,30,15,15,15,0,0,0,15,0Zm9.23126,11.634c-1.36633,1.65234-2.8,3.32519-4.18616,4.94384-1.42017,1.65747-2.88831,3.37133-4.27881,5.0559l-.76208.92285-.77014-.9104c-.09851-.115-5.74109-6.71776-8.46423-9.999a.99995.99995,0,1,1,1.53882-1.27734c2.12109,2.55542,6.02417,7.13891,7.67615,9.07469,1.16858-1.39819,2.37122-2.80224,3.54126-4.16821,1.381-1.61133,2.80884-3.27832,4.16418-4.91674a.99986.99986,0,0,1,1.541,1.27441Z"/></g></g></svg>