<svg xmlns="http://www.w3.org/2000/svg" xmlns:xlink="http://www.w3.org/1999/xlink" width="60" height="60" viewBox="0 0 60 60"><defs><style>.cls-1{fill:#00a4e6;}.cls-2{fill:url(#linear-gradient);}.cls-3{fill:#fff;}</style><linearGradient id="linear-gradient" x1="30" y1="60" x2="30" gradientUnits="userSpaceOnUse"><stop offset="0" stop-color="#004059" stop-opacity="0.7"/><stop offset="0.05976" stop-color="#004059" stop-opacity="0.60342"/><stop offset="0.26072" stop-color="#004059" stop-opacity="0.33807"/><stop offset="0.47474" stop-color="#004059" stop-opacity="0.14837"/><stop offset="0.70867" stop-color="#004059" stop-opacity="0.03586"/><stop offset="1" stop-color="#004059" stop-opacity="0"/></linearGradient></defs><title>Icon-Instagram-Active</title><g id="Layer_2" data-name="Layer 2"><g id="Footer"><circle class="cls-1" cx="30" cy="30" r="30"/><circle class="cls-2" cx="30" cy="30" r="30"/><polygon class="cls-3" points="29.997 15 29.999 15 30.001 15 29.997 15"/><path class="cls-3" d="M44.90918,23.81543a11.11222,11.11222,0,0,0-.69678-3.64062,7.67621,7.67621,0,0,0-4.38757-4.38721,11.05344,11.05344,0,0,0-3.64368-.69678C34.58142,15.01807,34.07178,15,29.999,15c-4.07129,0-4.583.01807-6.18262.09082a11.01918,11.01918,0,0,0-3.64062.69678,7.67451,7.67451,0,0,0-4.38843,4.38672,10.9592,10.9592,0,0,0-.6969,3.64063c-.07153,1.6001-.09021,2.11133-.09021,6.18506,0,4.07422.01807,4.5835.09058,6.18359a11.02614,11.02614,0,0,0,.69678,3.64063,7.67688,7.67688,0,0,0,4.38623,4.38867,11.02937,11.02937,0,0,0,3.64136.69678c1.6.07275,2.11084.09033,6.18433.09033,4.0741,0,4.58374-.01758,6.18384-.09033a11.036,11.036,0,0,0,3.64246-.69678,7.68734,7.68734,0,0,0,4.3866-4.38818,11.12034,11.12034,0,0,0,.69678-3.64062c.0719-1.6001.09058-2.10986.09058-6.18408C44.99976,25.92627,44.98108,25.415,44.90918,23.81543ZM42.21045,36.05615a8.29351,8.29351,0,0,1-.5166,2.78418,4.97487,4.97487,0,0,1-2.84619,2.84521,8.26906,8.26906,0,0,1-2.785.5166c-1.58118.07227-2.05627.08789-6.06116.08789-4.00537,0-4.48-.01562-6.06128-.08789a8.31218,8.31218,0,0,1-2.7854-.51709,4.9685,4.9685,0,0,1-2.84741-2.8457,8.29086,8.29086,0,0,1-.5166-2.78467c-.07178-1.58105-.08618-2.05615-.08618-6.06152,0-4.00586.0144-4.47852.08618-6.05957a8.30668,8.30668,0,0,1,.5166-2.78516,4.97279,4.97279,0,0,1,2.84741-2.84717,8.27272,8.27272,0,0,1,2.7854-.51709c1.38379-.0625,5.56055-.08105,6.06128-.08105,4.00488,0,4.47961.01465,6.06116.08643a8.29868,8.29868,0,0,1,2.785.5166,4.97178,4.97178,0,0,1,2.84619,2.84668,8.29057,8.29057,0,0,1,.5166,2.78467c.0719,1.58105.08752,2.05615.08752,6.05908C42.298,34,42.28235,34.4751,42.21045,36.05615Z"/><path class="cls-3" d="M38.00828,20.194a1.79969,1.79969,0,1,0,0-.00063Z"/><polygon class="cls-3" points="30.001 22.297 30.001 22.297 30.001 22.297 30.001 22.297"/><path class="cls-3" d="M30.00122,22.29688A7.70239,7.70239,0,1,0,37.70337,30,7.70376,7.70376,0,0,0,30.00122,22.29688ZM30.00146,35a5,5,0,1,1,5-5A4.9997,4.9997,0,0,1,30.00146,35Z"/></g></g></svg>