<svg xmlns="http://www.w3.org/2000/svg" width="200" height="200" viewBox="0 0 200 200"><defs><style>.cls-1{fill:#00a4e6;}.cls-2{fill:#fff;}.cls-3{fill:#011821;}</style></defs><title>Domenii-Icon-Placeholder</title><g id="Layer_2" data-name="Layer 2"><g id="Domenii_activitate" data-name="Domenii activitate"><circle class="cls-1" cx="100" cy="100" r="100"/><path class="cls-2" d="M128.84112,65.00081,113.8456,58.07974a4.23475,4.23475,0,0,1-2.46013-3.845h0A4.23475,4.23475,0,0,0,107.15071,50H92.87711a4.23475,4.23475,0,0,0-4.23475,4.23475h0a4.23475,4.23475,0,0,1-2.46013,3.845L71.1867,65.00081a4.23475,4.23475,0,0,0-1.0869.7233L48.37715,85.63643a4.23475,4.23475,0,0,0-.5602,5.61667l8.0411,11.02784a4.23475,4.23475,0,0,0,4.87954,1.48092l2.17334-.79688a4.23475,4.23475,0,0,1,5.67975,3.64655l3.08023,39.4831A4.23475,4.23475,0,0,0,75.89282,150h48.242a4.23475,4.23475,0,0,0,4.22193-3.90538l3.08023-39.4831a4.23475,4.23475,0,0,1,5.67975-3.64655l2.17334.79688a4.23475,4.23475,0,0,0,4.87954-1.48092l8.04111-11.02785a4.23475,4.23475,0,0,0-.56019-5.61666L129.928,65.72412A4.23475,4.23475,0,0,0,128.84112,65.00081Z"/><rect class="cls-3" x="95.94569" y="50" width="7.99949" height="3.11091"/><path class="cls-3" d="M151.582,85.63644l-2.192-2.00931-14.16335,19.124a4.17314,4.17314,0,0,1,1.82162.21387l2.17321.79688a4.164,4.164,0,0,0,2.03846.16479l11.63854-15.71488A4.20391,4.20391,0,0,0,151.582,85.63644Z"/><path class="cls-3" d="M48.29271,85.63644l2.192-2.00931,14.16335,19.124a4.17314,4.17314,0,0,0-1.82162.21387l-2.17321.79688a4.164,4.164,0,0,1-2.03846.16479L46.97617,88.21181A4.20391,4.20391,0,0,1,48.29271,85.63644Z"/><path class="cls-3" d="M100.01382,51.10377h0a1.151,1.151,0,0,1,1.151,1.151V113.925a1.151,1.151,0,0,1-1.151,1.151h0a1.151,1.151,0,0,1-1.151-1.151V52.25478A1.151,1.151,0,0,1,100.01382,51.10377Z"/></g></g></svg>