<svg xmlns="http://www.w3.org/2000/svg" width="199.65077" height="199.65077" viewBox="0 0 199.65077 199.65077"><defs><style>.cls-1{fill:#fff;}.cls-2{fill:#00a4e6;}</style></defs><title>Icon-Livrari-Standard</title><g id="Layer_2" data-name="Layer 2"><g id="Servicii_section" data-name="Servicii section"><circle class="cls-1" cx="99.82539" cy="99.82539" r="99.82539"/><path class="cls-2" d="M175.44231,100.48694A34.28546,34.28546,0,0,0,157.55482,79.2268a35.32887,35.32887,0,0,0-32.86368.16762L114.59208,62.17355l5.32746-14.105q.95825.0465,1.924.08333c.02716.00383.05417.00815.08069.0131l6.37107,1.17716a2.94517,2.94517,0,0,0,2.68428-.88219,2.65894,2.65894,0,0,0,.69364-2.44636L130.86,42.61182a2.60071,2.60071,0,0,0-2.81019-1.92593l-16.005,1.36012c-.38381.0326-.77849.05816-1.16038.08277a17.41914,17.41914,0,0,0-4.08307.59425c-1.81839.56405-1.96667,1.60156-1.94606,2.02132a2.62316,2.62316,0,0,0,2.33035,2.09,53.873,53.873,0,0,0,5.79552.751q1.66675.15358,3.38877.27366l-4.86118,12.8705L68.244,58.582l1.83-7.98046a1.696,1.696,0,0,0-1.65413-2.07773l-7.14413.07862a13.92486,13.92486,0,0,0-8.55266,2.92588c-2.42974,1.91426-3.66714,4.0909-3.67784,6.46966-.01374,2.85142,1.80161,5.76036,5.39573,8.6463a1.69761,1.69761,0,0,0,2.12518-2.64785c-2.746-2.20508-4.13388-4.21793-4.12541-5.98263.00575-1.29237.80773-2.57658,2.38372-3.8175a10.55451,10.55451,0,0,1,6.488-2.19932l4.97085-.05433L62.8009,67.12972,60.61467,72.0511a22.56033,22.56033,0,0,0-15.82654-1.18377A24.48568,24.48568,0,0,0,29.82892,83.594c-6.24628,12.31647-2.59864,28.06552,8.30435,35.85423A23.28206,23.28206,0,0,0,51.703,123.9039a22.75892,22.75892,0,0,0,5.0509-.5706A24.13259,24.13259,0,0,0,72.5467,111.07067c7.09274-12.88464,2.97675-29.787-8.94073-37.38992l1.23317-2.77592L93.96221,107.1857l-.44191,1.17-.16742.01578.03352.35537a1.68271,1.68271,0,0,0,.07818,1.18243c.01242.02748.0272.05337.04095.08l.72476,7.6819-.67111-.14493a1.88847,1.88847,0,0,0-2.29152,1.5851,2.15074,2.15074,0,0,0,1.63735,2.37541l6.13778,1.36092a2.04732,2.04732,0,0,0,.44549.04937,1.90529,1.90529,0,0,0,1.894-1.641,2.17594,2.17594,0,0,0-1.67921-2.40289l-1.75659-.37938-.884-9.37118,12.27081-.07386a33.41291,33.41291,0,0,0,15.7349,24.00083,36.60263,36.60263,0,0,0,19.41139,5.626c11.38571,0,21.63564-5.404,27.41886-14.45588A29.17768,29.17768,0,0,0,175.44231,100.48694ZM67.58192,61.94891l42.66624,2.118L96.2651,101.08855l-.92158-3.53883c.03867.0026.07736.00511.11585.00511a1.71328,1.71328,0,0,0,1.69184-1.47165A1.794,1.794,0,0,0,95.69186,94.062l-5.0231-.86222a1.67541,1.67541,0,0,0-1.27591.29561,1.70566,1.70566,0,0,0-.68853,1.14328,1.75347,1.75347,0,0,0,.01546.59237l-22.45164-27.97ZM90.13506,96.64244l1.28452.22662.66512,2.554-2.32206-2.89281A1.70383,1.70383,0,0,0,90.13506,96.64244Zm22.91517-30.38662,8.759,14.93576a30.2046,30.2046,0,0,0-8.83709,9.63856,28.85557,28.85557,0,0,0-3.86823,14.805l-10.95216.06605Zm2.8633,26.27255.09044-.15691a26.23666,26.23666,0,0,1,7.5708-8.16929l11.22085,19.13368a5.2939,5.2939,0,0,0-.76211.9833,5.23766,5.23766,0,0,0-.51905,1.16879l-21.01173.12673A25.46761,25.46761,0,0,1,115.91353,92.52837ZM45.74,74.12637a19.21946,19.21946,0,0,1,13.496,1.02828L51.54745,92.46218a4.09462,4.09462,0,0,0-1.98453.03024,4.41907,4.41907,0,0,0-2.78351,2.2781,5.2095,5.2095,0,0,0,1.60411,6.63217,4.21863,4.21863,0,0,0,2.3409.72144,4.13064,4.13064,0,0,0,1.01593-.12735,4.40819,4.40819,0,0,0,2.81-2.26356,5.27452,5.27452,0,0,0-.19886-5.22l7.85832-17.68969c10.12368,6.79461,13.52685,21.41216,7.36174,32.609a20.77872,20.77872,0,0,1-13.57081,10.59,19.2783,19.2783,0,0,1-4.287.4848,19.90616,19.90616,0,0,1-11.60654-3.82165c-9.57131-6.837-12.75621-20.69848-7.25071-31.55689v.00016A21.12955,21.12955,0,0,1,45.74,74.12637Zm87.87668,34.75621a6.16684,6.16684,0,0,0,2.725,3.21666,6.45728,6.45728,0,0,0,3.2306.871,5.74535,5.74535,0,0,0,4.95983-2.66623,5.27632,5.27632,0,0,0,.58818-4.13,6.11773,6.11773,0,0,0-2.96551-3.73617,6.40868,6.40868,0,0,0-4.35756-.695L126.46387,82.4173a32.28368,32.28368,0,0,1,29.564-.15787,30.89174,30.89174,0,0,1,16.14068,19.12521,25.822,25.822,0,0,1-3.13137,20.98674c-5.35386,8.37929-14.7085,12.89347-24.54618,12.89283a33.26229,33.26229,0,0,1-17.62288-5.114,30.0757,30.0757,0,0,1-14.11137-21.14206Z"/></g></g></svg>