<svg xmlns="http://www.w3.org/2000/svg" width="12.75" height="20.00001" viewBox="0 0 12.75 20.00001"><defs><style>.cls-1{fill:#00a4e6;}</style></defs><title>Icon-Field-Home</title><g id="Layer_2" data-name="Layer 2"><g id="Home_section" data-name="Home section"><path class="cls-1" d="M5.67172.32314.55694,6.2812a.92688.92688,0,0,0,.70328,1.53061H11.48978a.92688.92688,0,0,0,.70328-1.53061L7.07827.32314A.92688.92688,0,0,0,5.67172.32314Z"/><path class="cls-1" d="M0,10.91145V19a1,1,0,0,0,1,1H2.03271a1,1,0,0,0,1-1V15.61768a1,1,0,0,1,1-1H5.5498a1,1,0,0,1,1,1V19a1,1,0,0,0,1,1H11.75a1,1,0,0,0,1-1V10.91145a1,1,0,0,0-1-1H1A1,1,0,0,0,0,10.91145Z"/></g></g></svg>