<svg xmlns="http://www.w3.org/2000/svg" width="15.55158" height="20" viewBox="0 0 15.55158 20"><defs><style>.cls-1{fill:#80dbff;}</style></defs><title>Icon-Field-Phone</title><g id="Layer_2" data-name="Layer 2"><g id="Home_section" data-name="Home section"><path class="cls-1" d="M11.42674,5.10041l.25139.16976c1.53986,1.06724-.11805,3.89955-1.73878,6.2587-2.40774,3.49918-4.02208,4.69252-5.23,3.86552l-.24964-.17614c-1.26257-.87492-1.83837-1.27693-3.64215.82035a2.46823,2.46823,0,0,0-.80776,1.76894l.0077.0414c.12379.66579.951,1.20411,1.68383,1.67745l.45225.29708c1.14494.78395,5.62422-.95733,9.74983-6.94951,4.1277-5.99882,4.14393-10.791,2.99862-11.578l-.444-.31681C13.73836.46053,12.92318-.12873,12.2459.02478c-.46876.10848-.92884.575-1.36729,1.38815C9.56078,3.856,10.15553,4.24528,11.42674,5.10041Z"/></g></g></svg>