<svg xmlns="http://www.w3.org/2000/svg" width="100" height="100" viewBox="0 0 100 100"><defs><style>.cls-1,.cls-4{fill:#00a4e6;}.cls-2{fill:#fff;}.cls-3{fill:#004059;}.cls-4{opacity:0.5;}</style></defs><title>Icon-Alte-Documente</title><g id="Layer_2" data-name="Layer 2"><g id="Domenii_activitate" data-name="Domenii activitate"><circle class="cls-1" cx="50" cy="50" r="50"/><rect class="cls-2" x="43.3512" y="33.68416" width="32.58178" height="43.88566" transform="translate(119.28418 111.25399) rotate(-180)"/><path class="cls-3" d="M63.06317,45.77071h5.28689a.95955.95955,0,1,0,0-1.9191H63.06317a.95955.95955,0,1,0,0,1.9191Z"/><path class="cls-3" d="M50.93387,57.04916H68.35006a.95955.95955,0,1,0,0-1.9191H50.93387a.95955.95955,0,1,0,0,1.9191Z"/><path class="cls-3" d="M50.93387,63.5711H68.35006a.95955.95955,0,1,0,0-1.9191H50.93387a.95955.95955,0,1,0,0,1.9191Z"/><rect class="cls-4" x="43.35117" y="33.68405" width="16.89034" height="37.33329"/><rect class="cls-2" x="24.06702" y="22.43017" width="34.18571" height="46.04606"/><path class="cls-1" d="M48.27995,36.70222H34.06347a.7696.7696,0,0,1,0-1.53919H48.27995a.7696.7696,0,0,1,0,1.53919Z"/><path class="cls-1" d="M48.27995,43.35051H34.06347a.7696.7696,0,1,1,0-1.53919H48.27995a.7696.7696,0,1,1,0,1.53919Z"/><path class="cls-1" d="M48.27995,50.216H34.06347a.7696.7696,0,1,1,0-1.53919H48.27995a.7696.7696,0,1,1,0,1.53919Z"/><path class="cls-1" d="M48.27995,58.281h-5.802a.7696.7696,0,1,1,0-1.53919h5.802a.7696.7696,0,0,1,0,1.53919Z"/><path class="cls-1" d="M40.1,30.2809H34.06347a.7696.7696,0,0,1,0-1.53919H40.1a.7696.7696,0,0,1,0,1.53919Z"/></g></g></svg>