<svg xmlns="http://www.w3.org/2000/svg" width="100" height="100" viewBox="0 0 100 100"><defs><style>.cls-1{fill:#00a4e6;}.cls-2{fill:#fff;}.cls-3{fill:#05212f;}.cls-4{fill:#004059;}</style></defs><title>Icon-Contabil</title><g id="Layer_2" data-name="Layer 2"><g id="Domenii_activitate" data-name="Domenii activitate"><circle class="cls-1" cx="50" cy="50" r="50"/><rect class="cls-2" x="32.93485" y="25" width="34.13031" height="50" rx="1.83886" ry="1.83886"/><rect class="cls-3" x="37.89341" y="29.74942" width="24.21319" height="10.06807" rx="1.24188" ry="1.24188"/><circle class="cls-4" cx="39.44254" cy="44.86225" r="1.52892"/><circle class="cls-4" cx="46.32266" cy="44.86225" r="1.52892"/><circle class="cls-4" cx="53.20279" cy="44.86225" r="1.52892"/><circle class="cls-1" cx="60.08291" cy="44.86225" r="1.52892"/><circle class="cls-3" cx="39.44254" cy="50.67836" r="1.52892"/><circle class="cls-3" cx="46.32266" cy="50.67836" r="1.52892"/><circle class="cls-3" cx="53.20279" cy="50.67836" r="1.52892"/><circle class="cls-1" cx="60.08291" cy="50.67836" r="1.52892"/><circle class="cls-3" cx="39.44254" cy="56.49448" r="1.52892"/><circle class="cls-3" cx="46.32266" cy="56.49448" r="1.52892"/><circle class="cls-3" cx="53.20279" cy="56.49448" r="1.52892"/><circle class="cls-1" cx="60.08291" cy="56.49448" r="1.52892"/><circle class="cls-3" cx="39.44254" cy="62.3106" r="1.52892"/><circle class="cls-3" cx="46.32266" cy="62.3106" r="1.52892"/><circle class="cls-3" cx="53.20279" cy="62.3106" r="1.52892"/><circle class="cls-1" cx="60.08291" cy="62.3106" r="1.52892"/><circle class="cls-3" cx="39.44254" cy="68.12672" r="1.52892"/><circle class="cls-3" cx="46.32266" cy="68.12672" r="1.52892"/><circle class="cls-3" cx="53.20279" cy="68.12672" r="1.52892"/><circle class="cls-1" cx="60.08291" cy="68.12672" r="1.52892"/><rect class="cls-3" x="39.41864" y="66.59781" width="6.92497" height="3.05783"/></g></g></svg>