<svg xmlns="http://www.w3.org/2000/svg" width="81.47049" height="76.82441" viewBox="0 0 81.47049 76.82441"><defs><style>.cls-1{fill:#44ace1;}.cls-2{fill:#fff;}</style></defs><title>Icon-Shirt-Echipa</title><g id="Layer_2" data-name="Layer 2"><g id="Echipa_noastra" data-name="Echipa noastra"><path class="cls-1" d="M62.89227,11.52428,51.372,6.20721a3.25332,3.25332,0,0,1-1.89-2.95388h0A3.25332,3.25332,0,0,0,46.22874,0H35.26313a3.25332,3.25332,0,0,0-3.25332,3.25332h0a3.25332,3.25332,0,0,1-1.89,2.95388L18.5996,11.52428a3.25332,3.25332,0,0,0-.835.55567L1.07629,27.37747a3.25332,3.25332,0,0,0-.43037,4.315l6.17753,8.47208a3.25332,3.25332,0,0,0,3.74868,1.13771l1.66965-.6122a3.25332,3.25332,0,0,1,4.36343,2.80144l2.36637,30.33266a3.25332,3.25332,0,0,0,3.24347,3.00029H59.27668a3.25332,3.25332,0,0,0,3.24347-3.00029l2.36637-30.33266A3.25332,3.25332,0,0,1,69.24995,40.69l1.66965.6122a3.25332,3.25332,0,0,0,3.74868-1.13771l6.17753-8.47208a3.25332,3.25332,0,0,0-.43036-4.315L63.72728,12.08A3.25332,3.25332,0,0,0,62.89227,11.52428Z"/><rect class="cls-2" x="37.62055" width="6.14556" height="2.38994"/><path class="cls-2" d="M80.36281,27.37749l-1.684-1.54364L67.798,40.52575a3.206,3.206,0,0,1,1.39945.1643l1.66956.6122a3.199,3.199,0,0,0,1.566.1266L81.37423,29.356A3.22963,3.22963,0,0,0,80.36281,27.37749Z"/><path class="cls-2" d="M1.01142,27.37749l1.684-1.54364L13.57628,40.52575a3.206,3.206,0,0,0-1.39945.1643l-1.66956.6122a3.199,3.199,0,0,1-1.566.1266L0,29.356A3.22963,3.22963,0,0,1,1.01142,27.37749Z"/><rect class="cls-2" x="39.86161" y="0.84796" width="1.76852" height="49.14633" rx="0.88426" ry="0.88426"/></g></g></svg>