<svg xmlns="http://www.w3.org/2000/svg" width="20" height="6.60073" viewBox="0 0 20 6.60073"><defs><style>.cls-1{fill:#00a4e6;}</style></defs><title>Icon-Phone</title><g id="Layer_2" data-name="Layer 2"><g id="Header"><path class="cls-1" d="M4.5485,4.22562l-.00061-.26928C4.56426,2.29324,7.47118,2.09923,10.012,2.11377c3.77055.02436,5.45183.61534,5.44646,1.91485l-.00495.27118c-.01332,1.36356-.0216,1.98691,2.41812,2.26644a2.19111,2.19111,0,0,0,1.702-.28843l.02657-.02629c.42735-.42281.41043-1.29879.39284-2.073l-.00721-.48029C19.991,2.4664,16.47911.04409,10.021.00054,3.557-.04122.02874,2.33563.02155,3.56923l-.0114.48405C-.012,4.84047-.03853,5.733.41183,6.154a2.194,2.194,0,0,0,1.70124.3124C4.56454,6.2166,4.554,5.58566,4.5485,4.22562Z"/></g></g></svg>