<svg xmlns="http://www.w3.org/2000/svg" width="30" height="60" viewBox="0 0 30 60"><defs><style>.cls-1{fill:#00b6ff;}.cls-2,.cls-3,.cls-4{fill:#fff;}.cls-3{opacity:0.7;}.cls-4{opacity:0.4;}</style></defs><title>Icon-Jump-Homepage</title><g id="Layer_2" data-name="Layer 2"><g id="Home_section" data-name="Home section"><path class="cls-1" d="M15,0h0A15,15,0,0,1,30,15V45A15,15,0,0,1,15,60h0A15,15,0,0,1,0,45V15A15,15,0,0,1,15,0Z"/><path class="cls-2" d="M8.84586,16.65981c.91089-1.10156,1.8667-2.21679,2.79077-3.29589.94678-1.105,1.92554-2.24756,2.85254-3.3706l.50806-.61523.51343.60693c.06567.07666,3.82739,4.47851,5.64282,6.666a.66663.66663,0,1,1-1.02588.85156c-1.41406-1.70361-4.01611-4.75927-5.11743-6.0498-.77905.93213-1.58081,1.86816-2.36084,2.7788-.92065,1.07422-1.87256,2.18554-2.77612,3.27783a.66657.66657,0,0,1-1.02734-.84961Z"/><path class="cls-3" d="M8.84586,27.69407c.91089-1.10156,1.8667-2.21679,2.79077-3.29589.94678-1.105,1.92554-2.24756,2.85254-3.3706l.50806-.61523.51343.60693c.06567.07666,3.82739,4.47851,5.64282,6.666a.66663.66663,0,1,1-1.02588.85156c-1.41406-1.70361-4.01611-4.75927-5.11743-6.0498-.77905.93213-1.58081,1.86816-2.36084,2.7788-.92065,1.07422-1.87256,2.18554-2.77612,3.27783a.66657.66657,0,0,1-1.02734-.84961Z"/><path class="cls-4" d="M8.84586,38.243c.91089-1.10156,1.8667-2.21679,2.79077-3.29589.94678-1.105,1.92554-2.24756,2.85254-3.3706l.50806-.61523.51343.60693c.06567.07666,3.82739,4.47851,5.64282,6.666a.66663.66663,0,1,1-1.02588.85156c-1.41406-1.70361-4.01611-4.75927-5.11743-6.0498-.77905.93213-1.58081,1.86816-2.36084,2.7788-.92065,1.07422-1.87256,2.18554-2.77612,3.27783A.66657.66657,0,0,1,8.84586,38.243Z"/></g></g></svg>