<svg xmlns="http://www.w3.org/2000/svg" width="21.77562" height="20" viewBox="0 0 21.77562 20"><defs><style>.cls-1{fill:#00a4e6;}.cls-2{fill:#011821;}</style></defs><title>Icon-Clock</title><g id="Layer_2" data-name="Layer 2"><g id="Header"><circle class="cls-1" cx="10.88781" cy="11.7583" r="8.2417"/><path class="cls-1" d="M15.74057,1.79774h5.08478a1.69492,1.69492,0,0,1,1.69492,1.69492v0a1.69493,1.69493,0,0,1-1.69493,1.69493H15.74057a1.69492,1.69492,0,0,1-1.69492-1.69492v0a1.69492,1.69492,0,0,1,1.69492-1.69492Z" transform="translate(7.82464 -11.90502) rotate(45)"/><rect class="cls-1" x="-0.74465" y="1.79774" width="8.47463" height="3.38985" rx="1.69492" ry="1.69492" transform="translate(8.43204 3.49267) rotate(135)"/><rect class="cls-2" x="10.24305" y="11.26302" width="1.28953" height="7.37752" rx="0.64476" ry="0.64476" transform="translate(21.77562 29.90356) rotate(180)"/><rect class="cls-2" x="7.88563" y="9.12334" width="1.28953" height="5.26994" rx="0.64476" ry="0.64476" transform="translate(-3.22791 20.2887) rotate(-90.00001)"/><circle class="cls-2" cx="10.88781" cy="11.7583" r="1.72105"/></g></g></svg>