<svg xmlns="http://www.w3.org/2000/svg" width="29.07315" height="30" viewBox="0 0 29.07315 30"><defs><style>.cls-1{fill:#00a4e6;}</style></defs><title>Icon-Quote</title><g id="Layer_2" data-name="Layer 2"><g id="Testimoniale"><path class="cls-1" d="M3.53389,30A23.97153,23.97153,0,0,1,.4436,22.155a22.11284,22.11284,0,0,1-.14277-8.03481A22.39746,22.39746,0,0,1,3.08217,6.53738,23.952,23.952,0,0,1,8.7637,0l3.66086,2.23444a1.57475,1.57475,0,0,1,.8556,1.52135,2.28651,2.28651,0,0,1-.61791,1.42668,14.09575,14.09575,0,0,0-1.90182,3.13788,15.8369,15.8369,0,0,0-1.26,4.3737A17.3029,17.3029,0,0,0,9.572,17.87652a14.74561,14.74561,0,0,0,2.13926,5.51484,2.73011,2.73011,0,0,1,.47565,2.40088,2.437,2.437,0,0,1-1.56894,1.45009Zm15.78434,0a23.97153,23.97153,0,0,1-3.09029-7.845,22.1071,22.1071,0,0,1-.14252-8.03481,22.3915,22.3915,0,0,1,2.78109-7.58284A23.952,23.952,0,0,1,24.548,0l3.66086,2.23444a1.57433,1.57433,0,0,1,.8556,1.52135,2.28651,2.28651,0,0,1-.61791,1.42668,14.10527,14.10527,0,0,0-1.90182,3.13788A15.82806,15.82806,0,0,0,25.285,12.694a17.29414,17.29414,0,0,0,.07126,5.18247,14.74561,14.74561,0,0,0,2.13926,5.51484,2.73011,2.73011,0,0,1,.47565,2.40088,2.437,2.437,0,0,1-1.56894,1.45009Z"/></g></g></svg>