<svg xmlns="http://www.w3.org/2000/svg" width="105.40304" height="12.16595" viewBox="0 0 105.40304 12.16595"><defs><style>.cls-1{fill:#fff;}</style></defs><title>Icon-Funditi-linie</title><g id="Layer_2" data-name="Layer 2"><g id="Pop-up"><path class="cls-1" d="M105.0403,10.39609h0a3.26722,3.26722,0,0,1-5.65261.26865L96.37555,5.97666l5.65262-.26865A3.21719,3.21719,0,0,1,105.0403,10.39609Z"/><path class="cls-1" d="M87.16441,10.39609h0a3.26722,3.26722,0,0,0,5.65261.26865l3.01213-4.68809L90.17654,5.708A3.21719,3.21719,0,0,0,87.16441,10.39609Z"/><path class="cls-1" d="M105.0403,1.76986h0a3.26722,3.26722,0,0,0-5.65261-.26865L96.37555,6.18929l5.65262.26865A3.21719,3.21719,0,0,0,105.0403,1.76986Z"/><path class="cls-1" d="M87.16441,1.76986h0A3.26722,3.26722,0,0,1,92.817,1.5012l3.01213,4.68809-5.65262.26865A3.21719,3.21719,0,0,1,87.16441,1.76986Z"/><rect class="cls-1" x="94.08615" y="3.79988" width="3.8633" height="5.53152" rx="1.93165" ry="1.93165"/><rect class="cls-1" y="5.10895" width="90" height="1.94805"/></g></g></svg>