<svg xmlns="http://www.w3.org/2000/svg" width="100" height="100" viewBox="0 0 100 100"><defs><style>.cls-1{fill:#00a4e6;}.cls-2{fill:#fff;}.cls-3{fill:#80dbff;}.cls-4{fill:#004059;}</style></defs><title>Icon-Tehnica-Dentara</title><g id="Layer_2" data-name="Layer 2"><g id="Domenii_activitate" data-name="Domenii activitate"><circle class="cls-1" cx="50" cy="50" r="50"/><path class="cls-2" d="M38.75651,76.51541a3.61724,3.61724,0,0,1-6.4771-2.62192c1.65775-14.4653-9.81757-40.50807,4.86183-45.53788,4.52478-1.55,7.20966,1.98246,10.9159,3.83228,5.21379,2.60219,11.01729.76448,16.4051-.10445,3.692-.59543,9.58-1.39786,12.01622,2.2897,2.33094,3.52937-.82964,8.21908-2.78849,11.13558C70.78023,49.841,68.05361,53.471,67.36611,58.83528c-.62706,4.89273.071,9.82192-.24729,14.72976-.11918,1.83744-.95727,4.47044-3.25277,3.17785-4.58035-2.57921-5.63649-7.38-9.35156-10.65726C48.173,60.4914,43.39261,70.297,38.75651,76.51541Z"/><path class="cls-3" d="M64.46218,32.08343c-5.38784.869-11.1912,2.70662-16.405.10454-3.70631-1.84987-6.39118-5.38229-10.916-3.83231a11.74329,11.74329,0,0,0-1.333.549c.373.82375.77046,1.5748,1.09211,2.166,2.41461,4.43983,6.65355,8.79309,11.65009,10.1115,5.86775,1.54837,10.61857-1.09313,15.3199-4.33894,1.75365-1.21066,4.01671-3.15909,4.9104-5.25059A37.10988,37.10988,0,0,0,64.46218,32.08343Z"/><path class="cls-4" d="M56.45985,68.19093a13.90089,13.90089,0,0,0-1.04991-3.1623c-1.32017-2.749-3.91772-5.04414-6.958-5.28315-3.00242-.23609-5.87549,1.55538-7.72974,3.92853-2.93906,3.76135-3.95422,8.39318-4.833,12.94208a8.25408,8.25408,0,0,1-.4075,1.32031,3.462,3.462,0,0,0,3.27472-1.42106C43.39264,70.297,48.1731,60.49142,54.51449,66.0857A15.21961,15.21961,0,0,1,56.45985,68.19093Z"/></g></g></svg>