<svg xmlns="http://www.w3.org/2000/svg" width="252.02597" height="118.28558" viewBox="0 0 252.02597 118.28558"><defs><style>.cls-1{fill:#fff;}.cls-2{fill:none;stroke:#fff;stroke-miterlimit:10;stroke-width:2px;}.cls-3,.cls-4{fill:#00a4e6;}.cls-4{font-size:30px;font-family:Lato-Bold, Lato;font-weight:700;}</style></defs><title>Icon-Servicii-Express</title><g id="Layer_2" data-name="Layer 2"><g id="Servicii_section" data-name="Servicii section"><circle class="cls-1" cx="126.01298" cy="59.14279" r="50"/><circle class="cls-2" cx="126.01298" cy="59.14279" r="58.14279"/><rect class="cls-1" x="183.32753" y="48.1003" width="4.14948" height="21.64601" transform="translate(126.47897 244.32557) rotate(-90)"/><circle class="cls-1" cx="198.1058" cy="59.14279" r="5.10203"/><rect class="cls-1" x="64.54896" y="48.53927" width="4.14948" height="21.64601" transform="translate(125.98597 -7.26142) rotate(90)"/><circle class="cls-1" cx="53.92016" cy="59.14279" r="5.10203"/><path class="cls-3" d="M34.30023,47.20291a19.76073,19.76073,0,0,0-14.48145-5.77344A19.61461,19.61461,0,0,0,2.65533,51.42312,20.29228,20.29228,0,0,0,0,61.59781,19.06547,19.06547,0,0,0,5.82886,75.63015a19.49388,19.49388,0,0,0,14.3006,5.79932,19.284,19.284,0,0,0,14.18372-5.8252,19.32366,19.32366,0,0,0,5.81635-14.18774A19.22475,19.22475,0,0,0,34.30023,47.20291ZM22.50873,62.30069a2.5632,2.5632,0,0,0,.11261-.40369H36.17981a16.48925,16.48925,0,0,1-1.81226,7.25037Zm-2.9115,15.40906a15.5379,15.5379,0,0,1-7.2973-1.896l6.89349-11.93994a2.57677,2.57677,0,0,0,.40381.114Zm-1.975-17.15063a2.569,2.569,0,0,0-.1134.40283H3.95349a16.41956,16.41956,0,0,1,1.85889-7.22119Zm2.9101-15.40967a16.05869,16.05869,0,0,1,7.24042,1.99438L20.93677,58.984a2.544,2.544,0,0,0-.40448-.1134ZM17.5083,61.897a2.57218,2.57218,0,0,0,.13391.47119l-11.688,7.17554A15.74472,15.74472,0,0,1,3.949,61.897Zm5.11261-.93506a2.585,2.585,0,0,0-.13416-.4707L34.149,53.33145a16.03568,16.03568,0,0,1,2.03229,7.63049Zm11.02026-8.416L21.9953,59.69558a2.61834,2.61834,0,0,0-.25018-.24146L28.57355,47.627A15.73879,15.73879,0,0,1,33.64117,52.54593ZM19.59723,45.14456V58.87137a2.5882,2.5882,0,0,0-.47137.13525L11.96411,47.34109l.01-.00659A15.70148,15.70148,0,0,1,19.59723,45.14456Zm-8.41095,2.7168,7.14539,11.63879a2.61281,2.61281,0,0,0-.2403.25012L6.28259,52.9324A15.737,15.737,0,0,1,11.18628,47.86136ZM6.439,70.34341l11.6955-7.1803a2.59393,2.59393,0,0,0,.25018.24121l-6.88489,11.925A16.82278,16.82278,0,0,1,8.6416,73.05044,16.52735,16.52735,0,0,1,6.439,70.34341Zm14.09326,7.36707V63.98855a2.55937,2.55937,0,0,0,.47253-.13428l7.19464,11.719-.00519.00342A16.23429,16.23429,0,0,1,20.53229,77.71048Zm8.44849-2.65161L21.79956,63.3616a2.60518,2.60518,0,0,0,.24127-.25122l11.86536,6.85034A15.30787,15.30787,0,0,1,28.98077,75.05887Z"/><path class="cls-3" d="M246.19668,47.20291a19.76073,19.76073,0,0,0-14.48145-5.77344,19.61461,19.61461,0,0,0-17.16345,9.99365,20.29228,20.29228,0,0,0-2.65533,10.17468,19.06547,19.06547,0,0,0,5.82886,14.03235,19.49388,19.49388,0,0,0,14.3006,5.79932A19.87485,19.87485,0,0,0,252.026,61.41653,19.22475,19.22475,0,0,0,246.19668,47.20291Zm-11.7915,15.09778a2.56319,2.56319,0,0,0,.11261-.40369h13.55847a16.48926,16.48926,0,0,1-1.81226,7.25037Zm-2.9115,15.40906a15.5379,15.5379,0,0,1-7.2973-1.896l6.89349-11.93994a2.57677,2.57677,0,0,0,.40381.114Zm-1.975-17.15063a2.569,2.569,0,0,0-.1134.40283h-13.5553a16.41956,16.41956,0,0,1,1.85889-7.22119Zm2.9101-15.40967a16.05869,16.05869,0,0,1,7.24042,1.99438L232.83322,58.984a2.544,2.544,0,0,0-.40448-.1134Zm-3.024,16.74756a2.57219,2.57219,0,0,0,.13391.47119l-11.688,7.17554a15.74472,15.74472,0,0,1-2.00519-7.64673Zm5.11261-.93506a2.585,2.585,0,0,0-.13416-.4707l11.66223-7.15979a16.03568,16.03568,0,0,1,2.03229,7.63049Zm11.02026-8.416-11.64587,7.14966a2.61835,2.61835,0,0,0-.25018-.24146L240.47,47.627A15.73879,15.73879,0,0,1,245.53762,52.54593Zm-14.04395-7.40137V58.87137a2.5882,2.5882,0,0,0-.47137.13525l-7.16174-11.66553.01-.00659A15.70148,15.70148,0,0,1,231.49368,45.14456Zm-8.41095,2.7168,7.14539,11.63879a2.61282,2.61282,0,0,0-.2403.25012L218.179,52.9324A15.737,15.737,0,0,1,223.08273,47.86136Zm-4.74725,22.48206,11.6955-7.1803a2.59392,2.59392,0,0,0,.25018.24121l-6.88489,11.925a16.82278,16.82278,0,0,1-2.85822-2.27893A16.52736,16.52736,0,0,1,218.33548,70.34341Zm14.09326,7.36707V63.98855a2.55937,2.55937,0,0,0,.47253-.13428l7.19464,11.719-.00519.00342A16.23429,16.23429,0,0,1,232.42874,77.71048Zm8.44849-2.65161L233.696,63.3616a2.60517,2.60517,0,0,0,.24127-.25122l11.86536,6.85034A15.30787,15.30787,0,0,1,240.87722,75.05887Z"/><text class="cls-4" transform="translate(108.85356 67.78946)">1h</text></g></g></svg>