<svg xmlns="http://www.w3.org/2000/svg" width="100" height="100" viewBox="0 0 100 100"><defs><style>.cls-1{fill:#00a4e6;}.cls-2,.cls-4{fill:#fff;}.cls-3{fill:#011821;}.cls-4{stroke:#00a4e6;stroke-width:0.97843px;}.cls-4,.cls-5,.cls-6{stroke-miterlimit:10;}.cls-5,.cls-6{fill:none;stroke:#fff;}.cls-5{stroke-width:3.20871px;}.cls-6{stroke-width:1.92684px;}</style></defs><title>Icon-Echipamente-Tehnice</title><g id="Layer_2" data-name="Layer 2"><g id="Domenii_activitate" data-name="Domenii activitate"><circle class="cls-1" cx="50" cy="50" r="50"/><path class="cls-2" d="M73.35473,35.8731l.668,1.1684a.80218.80218,0,0,0,1.3894.00591L76.09,35.88473a.80218.80218,0,0,0-.68959-1.20621l-1.34586-.00572A.80218.80218,0,0,0,73.35473,35.8731Z"/><path class="cls-2" d="M24.5996,65.32148l1.34586.00572a.80218.80218,0,0,0,.69981-1.2003l-.668-1.1684a.80218.80218,0,0,0-1.3894-.00591L23.91,64.11527A.80218.80218,0,0,0,24.5996,65.32148Z"/><path class="cls-2" d="M62.95259,75.4121l1.16268.67789a.80218.80218,0,0,0,1.20621-.68959l.00572-1.34586a.80218.80218,0,0,0-1.2003-.69981l-1.1684.668A.80218.80218,0,0,0,62.95259,75.4121Z"/><path class="cls-2" d="M37.04741,24.5879,35.88473,23.91a.80218.80218,0,0,0-1.20621.68959l-.00572,1.34586a.80218.80218,0,0,0,1.2003.69981l1.1684-.668A.80218.80218,0,0,0,37.04741,24.5879Z"/><path class="cls-2" d="M41.18979,77.12793l.34281,1.30149a.80218.80218,0,0,0,1.34053.36531l.95572-.94762a.80218.80218,0,0,0-.3539-1.34359l-1.29853-.35386A.80218.80218,0,0,0,41.18979,77.12793Z"/><path class="cls-2" d="M56.52505,23.49648l1.29853.35386a.80218.80218,0,0,0,.98663-.97828l-.34281-1.30149a.80218.80218,0,0,0-1.34053-.36531l-.95572.94762A.80218.80218,0,0,0,56.52505,23.49648Z"/><path class="cls-2" d="M21.20527,42.87312l.94762.95572a.80218.80218,0,0,0,1.34359-.3539l.35386-1.29853a.80218.80218,0,0,0-.97828-.98663l-1.30149.34281A.80218.80218,0,0,0,21.20527,42.87312Z"/><path class="cls-2" d="M78.79473,57.12688l-.94762-.95572a.80218.80218,0,0,0-1.34359.3539l-.35386,1.29853a.80218.80218,0,0,0,.97828.98663l1.30149-.34281A.80218.80218,0,0,0,78.79473,57.12688Z"/><path class="cls-2" d="M79.296,45.34463l-1.2451-.511a.80218.80218,0,0,0-1.09953.84942l.18,1.33377a.80218.80218,0,0,0,1.28538.52751l1.06506-.8228A.80218.80218,0,0,0,79.296,45.34463Z"/><path class="cls-2" d="M20.704,54.65537l1.2451.511a.80218.80218,0,0,0,1.09953-.84942l-.18-1.33377a.80218.80218,0,0,0-1.28538-.52751l-1.06506.8228A.80218.80218,0,0,0,20.704,54.65537Z"/><path class="cls-2" d="M52.45565,78.4168l.8228,1.06506a.80218.80218,0,0,0,1.37693-.18586l.511-1.2451a.80218.80218,0,0,0-.84942-1.09953l-1.33377.18A.80218.80218,0,0,0,52.45565,78.4168Z"/><path class="cls-2" d="M47.54435,21.5832l-.8228-1.06506a.80218.80218,0,0,0-1.37693.18586l-.511,1.2451a.80218.80218,0,0,0,.84942,1.09953l1.33377-.18A.80218.80218,0,0,0,47.54435,21.5832Z"/><path class="cls-2" d="M32.57643,74.00726l1.24173-.5191A.80218.80218,0,0,0,33.995,72.11l-1.07042-.81582a.80218.80218,0,0,0-1.28191.5359L31.47138,73.165A.80218.80218,0,0,0,32.57643,74.00726Z"/><path class="cls-2" d="M67.42357,25.99274l-1.24173.5191A.80218.80218,0,0,0,66.005,27.89l1.07042.81582a.80218.80218,0,0,0,1.28191-.5359l.17131-1.33492A.80218.80218,0,0,0,67.42357,25.99274Z"/><path class="cls-2" d="M28.16988,31.64268,26.835,31.47138a.80218.80218,0,0,0-.84221,1.10506l.5191,1.24173A.80218.80218,0,0,0,27.89,33.995l.81582-1.07042A.80218.80218,0,0,0,28.16988,31.64268Z"/><path class="cls-2" d="M71.83012,68.35732l1.33492.17131a.80218.80218,0,0,0,.84221-1.10506l-.5191-1.24173A.80218.80218,0,0,0,72.11,66.005l-.81582,1.07042A.80218.80218,0,0,0,71.83012,68.35732Z"/><path class="cls-2" d="M79.64129,51.15024l-1.12147-.74409a.80218.80218,0,0,0-1.24413.61856L77.192,52.368a.80218.80218,0,0,0,1.15775.76817l1.20514-.59918A.80218.80218,0,0,0,79.64129,51.15024Z"/><path class="cls-2" d="M20.35871,48.84976l1.12147.74409a.80218.80218,0,0,0,1.24413-.61856L22.808,47.632a.80218.80218,0,0,0-1.15775-.76817l-1.20514.59918A.80218.80218,0,0,0,20.35871,48.84976Z"/><path class="cls-2" d="M46.86386,78.34978l.59918,1.20514a.80218.80218,0,0,0,1.38673.08638l.74409-1.12147a.80218.80218,0,0,0-.61856-1.24413L47.632,77.192A.80218.80218,0,0,0,46.86386,78.34978Z"/><path class="cls-2" d="M53.13614,21.65022,52.537,20.44508a.80218.80218,0,0,0-1.38673-.08638l-.74409,1.12147a.80218.80218,0,0,0,.61856,1.24413L52.368,22.808A.80218.80218,0,0,0,53.13614,21.65022Z"/><path class="cls-2" d="M28.2271,70.14621l1.31914-.26684a.80218.80218,0,0,0,.44235-1.31712l-.89066-1.009a.80218.80218,0,0,0-1.36183.27548l-.42848,1.27583A.80218.80218,0,0,0,28.2271,70.14621Z"/><path class="cls-2" d="M71.7729,29.85379l-1.31914.26684a.80218.80218,0,0,0-.44235,1.31712l.89066,1.009a.80218.80218,0,0,0,1.36183-.27548l.42848-1.27583A.80218.80218,0,0,0,71.7729,29.85379Z"/><path class="cls-2" d="M32.17126,27.7361l-1.27583-.42848a.80218.80218,0,0,0-1.04164.91948l.26684,1.31914a.80218.80218,0,0,0,1.31712.44235l1.009-.89066A.80218.80218,0,0,0,32.17126,27.7361Z"/><path class="cls-2" d="M67.82874,72.2639l1.27583.42848a.80218.80218,0,0,0,1.04164-.91948l-.26684-1.31914a.80218.80218,0,0,0-1.31712-.44235l-1.009.89066A.80218.80218,0,0,0,67.82874,72.2639Z"/><path class="cls-2" d="M74.9688,63.78783l1.34286-.09016a.80218.80218,0,0,0,.61254-1.2471l-.7495-1.11787a.80218.80218,0,0,0-1.38629.09307l-.59335,1.208A.80218.80218,0,0,0,74.9688,63.78783Z"/><path class="cls-2" d="M25.0312,36.21217l-1.34286.09016a.80218.80218,0,0,0-.61254,1.2471l.7495,1.11787a.80218.80218,0,0,0,1.38629-.09307l.59335-1.208A.80218.80218,0,0,0,25.0312,36.21217Z"/><path class="cls-2" d="M36.21217,74.9688l.09016,1.34286a.80218.80218,0,0,0,1.2471.61254l1.11787-.7495a.80218.80218,0,0,0-.09307-1.38629l-1.208-.59335A.80218.80218,0,0,0,36.21217,74.9688Z"/><path class="cls-2" d="M62.45057,23.0758l-1.11787.7495a.80218.80218,0,0,0,.09307,1.38629l1.208.59335a.80218.80218,0,0,0,1.154-.77375l-.09016-1.34286A.80218.80218,0,0,0,62.45057,23.0758Z"/><path class="cls-2" d="M22.15783,60.23441l1.32043.26047a.80218.80218,0,0,0,.91445-1.04606l-.43463-1.27376a.80218.80218,0,0,0-1.36314-.26891l-.8858,1.01329A.80218.80218,0,0,0,22.15783,60.23441Z"/><path class="cls-2" d="M77.84217,39.76559l-1.32043-.26047a.80218.80218,0,0,0-.91445,1.04606l.43463,1.27376a.80218.80218,0,0,0,1.36314.26891l.8858-1.01329A.80218.80218,0,0,0,77.84217,39.76559Z"/><path class="cls-2" d="M42.09385,22.59493l-1.01329-.8858a.80218.80218,0,0,0-1.315.4487l-.26047,1.32043a.80218.80218,0,0,0,1.04606.91445l1.27376-.43463A.80218.80218,0,0,0,42.09385,22.59493Z"/><path class="cls-2" d="M57.90615,77.40507l1.01329.8858a.80218.80218,0,0,0,1.315-.4487l.26047-1.32043a.80218.80218,0,0,0-1.04606-.91445l-1.27376.43463A.80218.80218,0,0,0,57.90615,77.40507Z"/><path class="cls-3" d="M65.1477,69.94326,59.34909,59.80041a2.44245,2.44245,0,0,1,2.76258-3.56874l11.58519,3.15711a2.44245,2.44245,0,0,0,2.99873-1.71444l.42809-1.57116a2.44245,2.44245,0,0,0-1.71438-2.9986l-10.752-2.93a2.44245,2.44245,0,0,1-.57005-4.47692L73.17,40.5051a2.44245,2.44245,0,0,0,.90818-3.33262L73.27,35.75888a2.44245,2.44245,0,0,0-3.33262-.90818L60.814,40.06648a2.44245,2.44245,0,0,1-3.56874-2.76258l2.636-9.6731a2.44245,2.44245,0,0,0-1.71424-2.99867l-1.57114-.42823a2.44245,2.44245,0,0,0-2.9988,1.71431L50.75146,36.36052a2.44245,2.44245,0,0,1-4.47692.57L40.49921,26.82844a2.44245,2.44245,0,0,0-3.33262-.90818l-1.4136.80815a2.44245,2.44245,0,0,0-.90818,3.33262l5.49555,9.61275a2.44245,2.44245,0,0,1-2.76258,3.56874l-10.784-2.93878A2.44245,2.44245,0,0,0,23.795,42.01818l-.42809,1.57116a2.44245,2.44245,0,0,0,1.71438,2.9986l10.752,2.93a2.44245,2.44245,0,0,1,.57005,4.47692l-9.08273,5.19254A2.44245,2.44245,0,0,0,26.41246,62.52l.80815,1.4136a2.44245,2.44245,0,0,0,3.33262.90818L39.67661,59.626a2.44245,2.44245,0,0,1,3.56874,2.76258l-2.636,9.6731a2.44245,2.44245,0,0,0,1.71424,2.99867l1.57114.42823a2.44245,2.44245,0,0,0,2.9988-1.71431l2.62733-9.64116a2.44245,2.44245,0,0,1,4.47692-.57l5.49555,9.61275a2.44245,2.44245,0,0,0,3.33262.90818l1.4136-.80815A2.44245,2.44245,0,0,0,65.1477,69.94326Z"/><circle class="cls-4" cx="50" cy="50" r="8.02178" transform="translate(-18.22283 31.40845) rotate(-29.75635)"/><circle class="cls-2" cx="50" cy="50" r="4.41198" transform="translate(-18.22283 31.40845) rotate(-29.75635)"/><circle class="cls-5" cx="50" cy="50" r="26.87298" transform="translate(-18.22283 31.40845) rotate(-29.75635)"/><circle class="cls-6" cx="50" cy="50" r="16.13728" transform="translate(-18.22283 31.40845) rotate(-29.75635)"/><path class="cls-2" d="M64.02456,41.51677l.40112.70163a.48171.48171,0,0,0,.83434.00355l.40707-.69819a.48171.48171,0,0,0-.4141-.72433L64.4448,40.796A.48171.48171,0,0,0,64.02456,41.51677Z"/><path class="cls-2" d="M34.747,59.20058l.80819.00343a.48171.48171,0,0,0,.42024-.72078l-.40112-.70163a.48171.48171,0,0,0-.83434-.00355l-.40707.69819A.48171.48171,0,0,0,34.747,59.20058Z"/><path class="cls-2" d="M57.77806,65.26l.69819.40707a.48171.48171,0,0,0,.72433-.4141l.00343-.80819a.48171.48171,0,0,0-.72078-.42024l-.70163.40112A.48171.48171,0,0,0,57.77806,65.26Z"/><path class="cls-2" d="M42.22194,34.74l-.69819-.40707a.48171.48171,0,0,0-.72433.4141l-.00343.80819a.48171.48171,0,0,0,.72078.42024l.70163-.40112A.48171.48171,0,0,0,42.22194,34.74Z"/><path class="cls-2" d="M44.70945,66.29038l.20586.78155a.48171.48171,0,0,0,.805.21937l.57391-.569a.48171.48171,0,0,0-.21252-.80683l-.77977-.2125A.48171.48171,0,0,0,44.70945,66.29038Z"/><path class="cls-2" d="M53.91831,34.08458l.77977.2125a.48171.48171,0,0,0,.59247-.58746l-.20586-.78155a.48171.48171,0,0,0-.805-.21937l-.57391.569A.48171.48171,0,0,0,53.91831,34.08458Z"/><path class="cls-2" d="M32.7087,45.7203l.569.57391a.48171.48171,0,0,0,.80683-.21252l.2125-.77977a.48171.48171,0,0,0-.58746-.59247l-.78155.20586A.48171.48171,0,0,0,32.7087,45.7203Z"/><path class="cls-2" d="M67.2913,54.2797l-.569-.57391a.48171.48171,0,0,0-.80683.21252l-.2125.77977a.48171.48171,0,0,0,.58746.59247l.78155-.20586A.48171.48171,0,0,0,67.2913,54.2797Z"/><path class="cls-2" d="M67.59231,47.20444l-.74768-.30684a.48171.48171,0,0,0-.66027.51008l.10811.80093a.48171.48171,0,0,0,.77187.31677l.63957-.49409A.48171.48171,0,0,0,67.59231,47.20444Z"/><path class="cls-2" d="M32.40769,52.79556l.74768.30684a.48171.48171,0,0,0,.66027-.51008l-.10811-.80093a.48171.48171,0,0,0-.77187-.31677l-.63957.49409A.48171.48171,0,0,0,32.40769,52.79556Z"/><path class="cls-2" d="M51.47462,67.06435l.49409.63957a.48171.48171,0,0,0,.82685-.11161l.30684-.74768a.48171.48171,0,0,0-.51008-.66027l-.80093.10811A.48171.48171,0,0,0,51.47462,67.06435Z"/><path class="cls-2" d="M48.52538,32.93565l-.49409-.63957a.48171.48171,0,0,0-.82685.11161l-.30684.74768a.48171.48171,0,0,0,.51008.66027l.80093-.10811A.48171.48171,0,0,0,48.52538,32.93565Z"/><path class="cls-2" d="M39.53711,64.41641l.74566-.31172a.48171.48171,0,0,0,.1062-.82756l-.64279-.4899a.48171.48171,0,0,0-.76979.32181l-.10287.80162A.48171.48171,0,0,0,39.53711,64.41641Z"/><path class="cls-2" d="M60.46289,35.58359l-.74566.31172a.48171.48171,0,0,0-.1062.82756l.64279.4899a.48171.48171,0,0,0,.76979-.32181l.10287-.80162A.48171.48171,0,0,0,60.46289,35.58359Z"/><path class="cls-2" d="M36.891,38.97639l-.80162-.10287a.48171.48171,0,0,0-.50575.66359l.31172.74566a.48171.48171,0,0,0,.82756.1062l.4899-.64279A.48171.48171,0,0,0,36.891,38.97639Z"/><path class="cls-2" d="M63.109,61.02361l.80162.10287a.48171.48171,0,0,0,.50575-.66359l-.31172-.74566a.48171.48171,0,0,0-.82756-.1062l-.4899.64279A.48171.48171,0,0,0,63.109,61.02361Z"/><path class="cls-2" d="M67.79966,50.69072l-.67344-.44683a.48171.48171,0,0,0-.7471.37145l-.05024.80663a.48171.48171,0,0,0,.69523.46129l.72369-.35981A.48171.48171,0,0,0,67.79966,50.69072Z"/><path class="cls-2" d="M32.20034,49.30928l.67344.44683a.48171.48171,0,0,0,.7471-.37145l.05024-.80663a.48171.48171,0,0,0-.69523-.46129l-.72369.35981A.48171.48171,0,0,0,32.20034,49.30928Z"/><path class="cls-2" d="M48.11674,67.0241l.35981.72369a.48171.48171,0,0,0,.83273.05187l.44683-.67344a.48171.48171,0,0,0-.37145-.7471l-.80663-.05024A.48171.48171,0,0,0,48.11674,67.0241Z"/><path class="cls-2" d="M51.88326,32.9759l-.35981-.72369a.48171.48171,0,0,0-.83273-.05187l-.44683.67344a.48171.48171,0,0,0,.37145.7471l.80663.05024A.48171.48171,0,0,0,51.88326,32.9759Z"/><path class="cls-2" d="M36.92533,62.09784l.79215-.16024a.48171.48171,0,0,0,.26563-.79093l-.53484-.6059a.48171.48171,0,0,0-.81778.16542l-.2573.76614A.48171.48171,0,0,0,36.92533,62.09784Z"/><path class="cls-2" d="M63.07467,37.90216l-.79215.16024a.48171.48171,0,0,0-.26563.79093l.53484.6059a.48171.48171,0,0,0,.81778-.16542l.2573-.76614A.48171.48171,0,0,0,63.07467,37.90216Z"/><path class="cls-2" d="M39.29381,36.63048l-.76614-.2573a.48171.48171,0,0,0-.62551.55215l.16024.79215a.48171.48171,0,0,0,.79093.26563l.6059-.53484A.48171.48171,0,0,0,39.29381,36.63048Z"/><path class="cls-2" d="M60.70619,63.36952l.76614.2573a.48171.48171,0,0,0,.62551-.55215l-.16024-.79215a.48171.48171,0,0,0-.79093-.26563l-.6059.53484A.48171.48171,0,0,0,60.70619,63.36952Z"/><path class="cls-2" d="M64.99382,58.27962l.80639-.05414a.48171.48171,0,0,0,.36783-.74889l-.45008-.67128a.48171.48171,0,0,0-.83247.05589l-.35631.72542A.48171.48171,0,0,0,64.99382,58.27962Z"/><path class="cls-2" d="M35.00618,41.72038l-.80639.05414a.48171.48171,0,0,0-.36783.74889l.45008.67128a.48171.48171,0,0,0,.83247-.05589l.35631-.72542A.48171.48171,0,0,0,35.00618,41.72038Z"/><path class="cls-2" d="M41.72038,64.99382l.05414.80639a.48171.48171,0,0,0,.74889.36783l.67128-.45008a.48171.48171,0,0,0-.05589-.83247l-.72542-.35631A.48171.48171,0,0,0,41.72038,64.99382Z"/><path class="cls-2" d="M57.47659,33.832l-.67128.45008a.48171.48171,0,0,0,.05589.83247l.72542.35631a.48171.48171,0,0,0,.693-.46464l-.05414-.80639A.48171.48171,0,0,0,57.47659,33.832Z"/><path class="cls-2" d="M33.28072,56.14578l.79292.15641a.48171.48171,0,0,0,.54913-.62816l-.261-.76489a.48171.48171,0,0,0-.81857-.16148l-.53192.60848A.48171.48171,0,0,0,33.28072,56.14578Z"/><path class="cls-2" d="M66.71928,43.85422l-.79292-.15641a.48171.48171,0,0,0-.54913.62816l.261.76489a.48171.48171,0,0,0,.81857.16148l.53192-.60848A.48171.48171,0,0,0,66.71928,43.85422Z"/><path class="cls-2" d="M45.25234,33.5432l-.60848-.53192a.48171.48171,0,0,0-.78964.26944l-.15641.79292a.48171.48171,0,0,0,.62816.54913l.76489-.261A.48171.48171,0,0,0,45.25234,33.5432Z"/><path class="cls-2" d="M54.74766,66.4568l.60848.53192a.48171.48171,0,0,0,.78964-.26944l.15641-.79292a.48171.48171,0,0,0-.62816-.54913l-.76489.261A.48171.48171,0,0,0,54.74766,66.4568Z"/></g></g></svg>