<svg xmlns="http://www.w3.org/2000/svg" width="100" height="100" viewBox="0 0 100 100"><defs><style>.cls-1{fill:#00a4e6;}.cls-2{fill:#fff;}.cls-3{fill:#011821;}.cls-4{fill:#004059;}.cls-5{fill:#80dbff;}</style></defs><title>Icon-Juridic</title><g id="Layer_2" data-name="Layer 2"><g id="Domenii_activitate" data-name="Domenii activitate"><circle class="cls-1" cx="50" cy="50" r="50"/><path class="cls-2" d="M67.49265,66.21671v-.33465a1.64849,1.64849,0,0,0-1.64849-1.64849H49.08332a1.64849,1.64849,0,0,0-1.64849,1.64849v.33465a1.64849,1.64849,0,0,1-1.64849,1.64849H43.3641A1.64849,1.64849,0,0,0,41.7156,69.5137v1.7139a1.64849,1.64849,0,0,0,1.64849,1.64849H71.56338a1.64849,1.64849,0,0,0,1.64849-1.64849V69.5137a1.64849,1.64849,0,0,0-1.64849-1.64849H69.14115A1.64849,1.64849,0,0,1,67.49265,66.21671Z"/><path class="cls-3" d="M41.7156,70.412v.81559a1.64858,1.64858,0,0,0,1.64849,1.64849H71.56338a1.64858,1.64858,0,0,0,1.64849-1.64849V70.412Z"/><rect class="cls-2" x="37.32174" y="38.1194" width="5.06261" height="41.20949" rx="2.25994" ry="2.25994" transform="translate(32.40249 -11.85404) rotate(28.13662)"/><rect class="cls-4" x="44.05757" y="43.84213" width="5.06261" height="4.58069" transform="translate(27.26056 -16.5185) rotate(28.13662)"/><rect class="cls-3" x="41.47277" y="49.44591" width="5.06261" height="3.0403" transform="translate(29.23451 -14.72837) rotate(28.13662)"/><path class="cls-2" d="M68.281,32.189a2.93077,2.93077,0,0,0-3.55519.62516l-17.13366-9.1626a2.93112,2.93112,0,0,0-5.4281-2.0993L34.04677,36.73111a2.932,2.932,0,0,0,5.12191,2.85372L56.1511,48.66656a2.932,2.932,0,0,0,5.21728,2.67538l8.11724-15.17888A2.93645,2.93645,0,0,0,68.281,32.189Z"/><path class="cls-2" d="M31.826,67.11566h0a3.62586,3.62586,0,0,1,3.62586,3.62586v5.98557A3.62587,3.62587,0,0,1,31.826,80.353h0a3.62587,3.62587,0,0,1-3.62587-3.62587V70.74152A3.62587,3.62587,0,0,1,31.826,67.11566Z" transform="translate(38.53231 -6.29488) rotate(28.13661)"/><rect class="cls-5" x="35.35745" y="31.02047" width="18.02268" height="2.25257" transform="translate(-4.90228 56.11266) rotate(-61.86337)"/><rect class="cls-5" x="50.50393" y="39.12038" width="18.02268" height="2.25257" transform="translate(-4.04122 73.74941) rotate(-61.86337)"/></g></g></svg>