<svg xmlns="http://www.w3.org/2000/svg" width="36.66667" height="50" viewBox="0 0 36.66667 50"><defs><style>.cls-1{fill:#44ace1;}.cls-2{fill:#05212f;}.cls-3{fill:#fff;}</style></defs><title>Icon-George</title><g id="Layer_2" data-name="Layer 2"><g id="Echipa_noastra" data-name="Echipa noastra"><rect class="cls-1" width="36.66667" height="50" rx="3.33333" ry="3.33333"/><rect class="cls-2" x="4.48808" y="4.95228" width="27.67551" height="6.16843" rx="2.9766" ry="2.9766"/><circle class="cls-3" cx="8.75404" cy="19.90305" r="2.21594"/><circle class="cls-3" cx="15.2952" cy="19.90305" r="2.21594"/><circle class="cls-3" cx="21.83635" cy="19.90305" r="2.21594"/><circle class="cls-3" cx="27.97834" cy="19.90305" r="2.21594"/><circle class="cls-3" cx="8.75404" cy="26.78953" r="2.21594"/><circle class="cls-3" cx="15.2952" cy="26.78953" r="2.21594"/><circle class="cls-3" cx="21.83635" cy="26.78953" r="2.21594"/><circle class="cls-3" cx="27.97834" cy="26.78953" r="2.21594"/><circle class="cls-3" cx="8.75404" cy="34.18496" r="2.21594"/><circle class="cls-3" cx="15.2952" cy="34.18496" r="2.21594"/><circle class="cls-3" cx="21.83635" cy="34.18496" r="2.21594"/><circle class="cls-3" cx="27.97834" cy="34.18496" r="2.21594"/><circle class="cls-3" cx="8.75404" cy="41.55388" r="2.21594"/><circle class="cls-3" cx="15.81871" cy="41.55388" r="2.21594"/><rect class="cls-3" x="21.40544" y="39.34397" width="8.78885" height="4.41983" rx="2.20991" ry="2.20991"/></g></g></svg>