<svg xmlns="http://www.w3.org/2000/svg" width="68.20885" height="67.9887" viewBox="0 0 68.20885 67.9887"><defs><style>.cls-1{fill:#fff;}</style></defs><title>Icon-Loading-Wheel</title><g id="Layer_2" data-name="Layer 2"><g id="Comanda"><rect class="cls-1" x="33.30973" y="2.20637" width="1.5894" height="63.57595"/><rect class="cls-1" x="33.30973" y="2.20637" width="1.5894" height="63.57595" transform="translate(68.09878 -0.11008) rotate(90)"/><rect class="cls-1" x="33.30973" y="2.20637" width="1.5894" height="63.57595" transform="translate(80.59661 21.45623) rotate(120)"/><rect class="cls-1" x="33.30973" y="2.20637" width="1.5894" height="63.57595" transform="translate(80.95436 45.12141) rotate(148.45306)"/><rect class="cls-1" x="33.30973" y="2.20637" width="1.5894" height="63.57595" transform="translate(46.64255 80.48654) rotate(-150)"/><rect class="cls-1" x="33.30973" y="2.20637" width="1.5894" height="63.57595" transform="translate(22.97737 80.84428) rotate(-121.54694)"/><path class="cls-1" d="M33.68631,0Q48.39285,0,58.30066,9.81326a32.67593,32.67593,0,0,1,9.90819,24.15909,32.84434,32.84434,0,0,1-9.88619,24.11509A32.77764,32.77764,0,0,1,34.21438,67.9887,33.13383,33.13383,0,0,1,9.90745,58.13144,32.40593,32.40593,0,0,1,0,34.28039,34.49236,34.49236,0,0,1,4.5133,16.98617,33.339,33.339,0,0,1,33.68631,0Zm.286,6.29281A26.66555,26.66555,0,0,0,20.3526,10.03675a26.92559,26.92559,0,0,0-10.04972,10.085,28.043,28.043,0,0,0-3.614,14.13669A26.41449,26.41449,0,0,0,14.68824,53.7467a26.36438,26.36438,0,0,0,19.28411,7.9492,27.69208,27.69208,0,0,0,13.94991-3.65519,26.17109,26.17109,0,0,0,10.0051-9.99694A28.09148,28.09148,0,0,0,61.52,33.95035a27.40345,27.40345,0,0,0-3.59264-13.93866,26.83018,26.83018,0,0,0-10.11511-9.97494A27.37372,27.37372,0,0,0,33.97235,6.29281Z"/><path class="cls-1" d="M38.52943,33.99849a4.425,4.425,0,1,1-4.41719-4.43318,4.421,4.421,0,0,1,4.41719,4.43318"/></g></g></svg>