<svg xmlns="http://www.w3.org/2000/svg" width="100" height="100" viewBox="0 0 100 100"><defs><style>.cls-1{fill:#00a4e6;}.cls-2{fill:#fff;}.cls-3{fill:#80dbff;}.cls-4{fill:#004059;}</style></defs><title>Icon-Alte-Colete</title><g id="Layer_2" data-name="Layer 2"><g id="Domenii_activitate" data-name="Domenii activitate"><circle class="cls-1" cx="50" cy="50" r="50"/><polygon class="cls-2" points="27.931 73.793 27.931 43.103 50 35.862 72.069 39.655 72.069 70.345 51.379 80 27.931 73.793"/><polygon class="cls-3" points="51.379 80 72.069 70.345 72.069 39.655 51.373 47.25 51.379 80"/><polygon class="cls-2" points="36.662 41.194 36.662 23.521 49.906 20 63.15 21.975 63.15 40.595 50.734 44.919 36.662 41.194"/><polygon class="cls-4" points="50.734 44.919 63.15 40.509 63.15 21.975 50.73 26.041 50.734 44.919"/><polygon class="cls-3" points="50.73 26.041 36.662 23.557 36.662 41.91 50.734 44.919 50.73 26.041"/></g></g></svg>