<svg xmlns="http://www.w3.org/2000/svg" width="36.66667" height="50" viewBox="0 0 36.66667 50"><defs><style>.cls-1{fill:#44ace1;}.cls-2{fill:#fff;}</style></defs><title>Icon-Anto</title><g id="Layer_2" data-name="Layer 2"><g id="Echipa_noastra" data-name="Echipa noastra"><rect class="cls-1" width="36.66667" height="50" rx="3.33333" ry="3.33333"/><path class="cls-2" d="M26.0648,15.49758H10.62756a.83568.83568,0,1,1,0-1.67136H26.0648a.83568.83568,0,0,1,0,1.67136Z"/><path class="cls-2" d="M26.0648,22.71675H10.62756a.83568.83568,0,1,1,0-1.67136H26.0648a.83568.83568,0,0,1,0,1.67136Z"/><path class="cls-2" d="M26.0648,30.17177H10.62756a.83568.83568,0,1,1,0-1.67136H26.0648a.83568.83568,0,0,1,0,1.67136Z"/><path class="cls-2" d="M26.0648,38.92928H19.76455a.83568.83568,0,0,1,0-1.67136H26.0648a.83568.83568,0,1,1,0,1.67136Z"/><path class="cls-2" d="M17.18243,8.52487H10.62756a.83568.83568,0,1,1,0-1.67136h6.55487a.83568.83568,0,0,1,0,1.67136Z"/></g></g></svg>