<svg xmlns="http://www.w3.org/2000/svg" width="203.08773" height="100" viewBox="0 0 203.08773 100"><defs><style>.cls-1{fill:#fff;}.cls-2{fill:#00a4e6;}</style></defs><title>Icon-Servicii-Sameday</title><g id="Layer_2" data-name="Layer 2"><g id="Servicii_section" data-name="Servicii section"><circle class="cls-1" cx="101.54387" cy="50" r="50"/><path class="cls-2" d="M139.41846,50.33136a17.17272,17.17272,0,0,0-8.95939-10.64866,17.69533,17.69533,0,0,0-16.46058.084l-5.05836-8.6255,2.66839-7.06486q.48.02329.96371.04174l.04042.00656,3.19111.58961a1.47516,1.47516,0,0,0,1.34449-.44187,1.33179,1.33179,0,0,0,.34743-1.22532l-.40737-1.70384a1.30263,1.30263,0,0,0-1.40756-.96465l-8.01651.68125c-.19224.01633-.38992.02913-.58121.04146a8.7248,8.7248,0,0,0-2.0451.29765c-.91079.28252-.98506.80218-.97473,1.01243a1.31387,1.31387,0,0,0,1.16721,1.04684,26.98364,26.98364,0,0,0,2.90283.37616q.83483.07692,1.69735.13707l-2.43484,6.44651L85.72556,29.34224l.91658-3.99721a.8495.8495,0,0,0-.82851-1.04068l-3.57831.03938a6.97461,6.97461,0,0,0-4.28381,1.4655,4.16069,4.16069,0,0,0-1.84214,3.24049c-.00688,1.4282.90238,2.88522,2.70258,4.33071a.85029.85029,0,0,0,1.06445-1.32624c-1.37538-1.10447-2.07056-2.11265-2.06631-2.99655A2.57715,2.57715,0,0,1,79.004,27.14555,5.28649,5.28649,0,0,1,82.25372,26.044l2.48977-.02721-1.74426,7.60682-1.095,2.465a11.2999,11.2999,0,0,0-7.92711-.59292,12.26426,12.26426,0,0,0-7.49269,6.37446,14.41957,14.41957,0,0,0,4.15944,17.95847,11.66139,11.66139,0,0,0,6.79671,2.23174,11.39936,11.39936,0,0,0,2.52987-.2858,12.0874,12.0874,0,0,0,7.91023-6.142c3.55257-6.45359,1.491-14.91957-4.47818-18.72766l.61766-1.39039,14.587,18.17217-.22134.586-.08386.0079.01679.178a.84283.84283,0,0,0,.03916.59225c.00622.01377.01363.02673.02051.04006l.363,3.84767-.33614-.07259a.94588.94588,0,0,0-1.14777.79394,1.07725,1.07725,0,0,0,.82011,1.18978l3.07426.68165a1.02545,1.02545,0,0,0,.22313.02473.95431.95431,0,0,0,.94864-.82195,1.08987,1.08987,0,0,0-.84108-1.20355l-.87983-.19L100.16,54.64672l6.14614-.037a16.73568,16.73568,0,0,0,7.88121,12.0214A18.33333,18.33333,0,0,0,123.91,69.449a16.09749,16.09749,0,0,0,13.73341-7.24058A14.61436,14.61436,0,0,0,139.41846,50.33136ZM85.39393,31.02863l21.37044,1.06086L99.76061,50.63268l-.4616-1.77251c.01937.0013.03875.00256.058.00256a.85814.85814,0,0,0,.8474-.73711.89859.89859,0,0,0-.73095-1.01235l-2.51594-.43186a.83917.83917,0,0,0-.63907.14806.85432.85432,0,0,0-.34487.57264.87827.87827,0,0,0,.00774.29671L84.73589,33.68936Zm11.2963,17.37711.64338.11351.33314,1.27923-1.16306-1.44893A.8534.8534,0,0,0,96.69023,48.40574Zm11.47762-15.21989L112.555,40.6668a15.12872,15.12872,0,0,0-4.42627,4.82771,14.453,14.453,0,0,0-1.9375,7.41546l-5.48566.03308ZM109.602,46.34511l.0453-.07859a13.14128,13.14128,0,0,1,3.792-4.09179l5.62024,9.58357a2.65158,2.65158,0,0,0-.38172.49251,2.62341,2.62341,0,0,0-.26.58542l-10.52424.06348A12.75608,12.75608,0,0,1,109.602,46.34511ZM74.45387,37.128a9.62654,9.62654,0,0,1,6.7598.515l-3.851,8.66891a2.05089,2.05089,0,0,0-.994.01515,2.2134,2.2134,0,0,0-1.39419,1.141A2.60931,2.60931,0,0,0,75.77795,50.79a2.113,2.113,0,0,0,1.1725.36135,2.06893,2.06893,0,0,0,.50886-.06379,2.208,2.208,0,0,0,1.40748-1.13376,2.64187,2.64187,0,0,0-.0996-2.61458l3.936-8.86032c5.07069,3.40325,6.77526,10.72481,3.68731,16.333a10.40753,10.40753,0,0,1-6.79727,5.30424A9.656,9.656,0,0,1,77.446,60.359a9.97049,9.97049,0,0,1-5.81342-1.91417,12.68772,12.68772,0,0,1-3.6317-15.806v.00008A10.58326,10.58326,0,0,1,74.45387,37.128Zm44.01519,17.4085a3.08881,3.08881,0,0,0,1.36488,1.61114,3.23429,3.23429,0,0,0,1.61812.43626,2.8777,2.8777,0,0,0,2.48425-1.33544,2.64277,2.64277,0,0,0,.2946-2.06863,3.06422,3.06422,0,0,0-1.48535-1.87135,3.20994,3.20994,0,0,0-2.18259-.34809l-5.67657-9.67967a16.17007,16.17007,0,0,1,14.80786-.07907,15.47289,15.47289,0,0,1,8.08446,9.57933,12.93356,12.93356,0,0,1-1.56842,10.51173,14.39733,14.39733,0,0,1-12.29456,6.45769,16.66024,16.66024,0,0,1-8.82685-2.56148,15.06415,15.06415,0,0,1-7.068-10.58952Z"/><polygon class="cls-1" points="15.772 35 20.646 44.875 31.544 46.459 23.658 54.146 25.52 65 15.772 59.875 6.024 65 7.886 54.146 0 46.459 10.898 44.875 15.772 35"/><polygon class="cls-1" points="187.316 35 192.19 44.875 203.088 46.459 195.202 54.146 197.063 65 187.316 59.875 177.568 65 179.43 54.146 171.544 46.459 182.442 44.875 187.316 35"/></g></g></svg>