<svg xmlns="http://www.w3.org/2000/svg" width="18.60138" height="12.16595" viewBox="0 0 18.60138 12.16595"><defs><style>.cls-1{fill:#fff;}</style></defs><title>Icon-Fundita</title><g id="Layer_2" data-name="Layer 2"><g id="Pop-up"><path class="cls-1" d="M18.23863,10.39609h0a3.26722,3.26722,0,0,1-5.65261.26865L9.57389,5.97666,15.2265,5.708A3.21719,3.21719,0,0,1,18.23863,10.39609Z"/><path class="cls-1" d="M.36275,10.39609h0a3.26722,3.26722,0,0,0,5.65261.26865L9.02749,5.97666,3.37488,5.708A3.21719,3.21719,0,0,0,.36275,10.39609Z"/><path class="cls-1" d="M18.23863,1.76986h0A3.26722,3.26722,0,0,0,12.586,1.5012L9.57389,6.18929l5.65262.26865A3.21719,3.21719,0,0,0,18.23863,1.76986Z"/><path class="cls-1" d="M.36275,1.76986h0A3.26722,3.26722,0,0,1,6.01536,1.5012L9.02749,6.18929l-5.65262.26865A3.21719,3.21719,0,0,1,.36275,1.76986Z"/><rect class="cls-1" x="7.28449" y="3.79988" width="3.8633" height="5.53152" rx="1.93165" ry="1.93165"/></g></g></svg>