<svg xmlns="http://www.w3.org/2000/svg" width="53.02383" height="50" viewBox="0 0 53.02383 50"><defs><style>.cls-1{fill:#44ace1;}.cls-2{fill:#fff;}</style></defs><title>Icon-Simon</title><g id="Layer_2" data-name="Layer 2"><g id="Echipa_noastra" data-name="Echipa noastra"><path class="cls-1" d="M40.93248,7.5004,33.43471,4.03987a2.11738,2.11738,0,0,1-1.23007-1.92249h0A2.11738,2.11738,0,0,0,30.08727,0h-7.1368A2.11738,2.11738,0,0,0,20.8331,2.11738h0A2.11738,2.11738,0,0,1,19.603,4.03987L12.10526,7.50041a2.11738,2.11738,0,0,0-.54345.36165L.70049,17.81821a2.11738,2.11738,0,0,0-.2801,2.80833l4.02055,5.51392a2.11738,2.11738,0,0,0,2.43977.74046l1.08667-.39844a2.11738,2.11738,0,0,1,2.83987,1.82327l1.54011,19.74155A2.11738,2.11738,0,0,0,14.45833,50h24.121a2.11738,2.11738,0,0,0,2.111-1.95269L42.2304,28.30576a2.11738,2.11738,0,0,1,2.83987-1.82327l1.08667.39844a2.11738,2.11738,0,0,0,2.43977-.74046l4.02055-5.51393a2.11738,2.11738,0,0,0-.28009-2.80833L41.47593,7.86206A2.11738,2.11738,0,0,0,40.93248,7.5004Z"/><rect class="cls-2" x="24.48476" width="3.99975" height="1.55546"/><path class="cls-2" d="M52.30291,17.81822l-1.096-1.00466-7.08167,9.562a2.08657,2.08657,0,0,1,.91081.10694l1.08661.39844a2.082,2.082,0,0,0,1.01923.0824l5.81927-7.85744A2.102,2.102,0,0,0,52.30291,17.81822Z"/><path class="cls-2" d="M.65827,17.81822l1.096-1.00466,7.08167,9.562a2.08657,2.08657,0,0,0-.91081.10694l-1.08661.39844a2.082,2.082,0,0,1-1.01923.0824L0,19.10591A2.102,2.102,0,0,1,.65827,17.81822Z"/><rect class="cls-2" x="25.94332" y="0.55188" width="1.15102" height="31.98614" rx="0.57551" ry="0.57551"/></g></g></svg>