<svg xmlns="http://www.w3.org/2000/svg" width="76.41788" height="50" viewBox="0 0 76.41788 50"><defs><style>.cls-1{fill:#fff;}</style></defs><title>Icon-Bicicle</title><g id="Layer_2" data-name="Layer 2"><g id="Home_section" data-name="Home section"><path class="cls-1" d="M2.36422,42.62306A16.40066,16.40066,0,0,0,16.35627,50a18.6786,18.6786,0,0,0,9.90578-2.871,17.05086,17.05086,0,0,0,8.02964-12.2478l6.26189.03769-.45113,4.78218-.8964.1936a1.1104,1.1104,0,0,0-.85692,1.22622.97228.97228,0,0,0,.96651.83743,1.04476,1.04476,0,0,0,.22734-.0252l3.13216-.69449a1.09754,1.09754,0,0,0,.83555-1.21219.9637.9637,0,0,0-1.16938-.80889l-.34247.074.36985-3.92013c.007-.01358.01456-.02679.02089-.04081a.8587.8587,0,0,0,.03989-.6034l.0171-.18135-.08543-.00805-.22551-.59708L56.99736,15.4263l.62929,1.41657c-6.08158,3.87981-8.182,12.50523-4.56252,19.08036a12.315,12.315,0,0,0,8.0592,6.25771,11.614,11.614,0,0,0,2.57751.29118,11.881,11.881,0,0,0,6.92472-2.27377,14.69113,14.69113,0,0,0,4.23777-18.29669,12.49523,12.49523,0,0,0-7.6338-6.49451,11.51271,11.51271,0,0,0-8.0764.60409l-1.11565-2.51142L56.26038,5.74975l2.53666.02772a5.386,5.386,0,0,1,3.3109,1.12233,2.62569,2.62569,0,0,1,1.21643,1.9481c.00432.90054-.70394,1.92771-2.10523,3.053a.8663.8663,0,0,0,1.0845,1.35122c1.8341-1.47271,2.76049-2.95717,2.75348-4.41227a4.239,4.239,0,0,0-1.87683-3.30152,7.106,7.106,0,0,0-4.36449-1.4931l-3.6457-.04012A.8655.8655,0,0,0,54.326,5.06538l.93384,4.07249-22.07829,1.0959-2.4807-6.56791q.87728-.06137,1.72931-.13965a27.49182,27.49182,0,0,0,2.9575-.38324,1.33862,1.33862,0,0,0,1.1892-1.06656c.01052-.21421-.06515-.74366-.99309-1.0315A8.88912,8.88912,0,0,0,33.50013.74166C33.30525.7291,33.10384.71605,32.908.69942L24.74049.00534a1.32716,1.32716,0,0,0-1.43406.98282l-.415,1.73593a1.35688,1.35688,0,0,0,.354,1.24839,1.50294,1.50294,0,0,0,1.36981.45019L27.86637,3.822l.04118-.00669q.493-.01841.98186-.04252L31.608,10.97066,26.45443,19.7586a18.02859,18.02859,0,0,0-16.77058-.08554A17.49613,17.49613,0,0,0,.55572,30.52227,14.88959,14.88959,0,0,0,2.36422,42.62306Zm53.9039-29.0562L44.81088,27.84016a.89481.89481,0,0,0,.00789-.30229.87041.87041,0,0,0-.35136-.58343.855.855,0,0,0-.65111-.15085l-2.56333.44a.91551.91551,0,0,0-.74472,1.03141.8743.8743,0,0,0,.86336.751c.01964,0,.03938-.00128.05912-.00261l-.47029,1.80589L33.82479,11.93686,55.59769,10.856ZM44.2787,28.50314l-1.185,1.47622.33941-1.30332.6555-.11565A.86948.86948,0,0,0,44.2787,28.50314Zm-4.281,4.68-5.589-.03371a14.72522,14.72522,0,0,0-1.974-7.55511,15.41364,15.41364,0,0,0-4.50963-4.91863l4.46979-7.62183ZM32.67426,33.139l-10.72244-.06467a2.67282,2.67282,0,0,0-.26488-.59644,2.70152,2.70152,0,0,0-.38891-.50178L27.02411,22.212a13.38877,13.38877,0,0,1,3.86344,4.16885l.04615.08007A12.99631,12.99631,0,0,1,32.67426,33.139Zm40.644-10.454v-.00008A12.92667,12.92667,0,0,1,69.6182,38.78858a10.15826,10.15826,0,0,1-5.9229,1.95022,9.83786,9.83786,0,0,1-2.18767-.2474,10.60354,10.60354,0,0,1-6.92529-5.40414C51.43624,29.37343,53.1729,21.914,58.3391,18.44664l4.01016,9.02718a2.69163,2.69163,0,0,0-.10148,2.66382,2.24953,2.24953,0,0,0,1.434,1.15511,2.1079,2.1079,0,0,0,.51844.065,2.1528,2.1528,0,0,0,1.19458-.36816,2.65845,2.65845,0,0,0,.81859-3.38445,2.25509,2.25509,0,0,0-1.42045-1.16253,2.08952,2.08952,0,0,0-1.01272-.01543L59.85669,17.595a9.80784,9.80784,0,0,1,6.88711-.52474A10.78257,10.78257,0,0,1,73.31829,22.68495ZM32.54463,34.8707a15.34786,15.34786,0,0,1-7.20114,10.789,16.974,16.974,0,0,1-8.99309,2.60972A14.66847,14.66847,0,0,1,3.8243,41.69006a13.17714,13.17714,0,0,1-1.598-10.70969A15.76429,15.76429,0,0,1,10.463,21.22063a16.47461,16.47461,0,0,1,15.08674.08056l-5.78348,9.862a3.2704,3.2704,0,0,0-2.2237.35464,3.12192,3.12192,0,0,0-1.51332,1.90659,2.69254,2.69254,0,0,0,.30015,2.10759,2.93189,2.93189,0,0,0,2.531,1.3606,3.2952,3.2952,0,0,0,1.6486-.44448,3.147,3.147,0,0,0,1.39058-1.64148Z"/></g></g></svg>