<svg xmlns="http://www.w3.org/2000/svg" width="610.65932" height="339.58818" viewBox="0 0 610.65932 339.58818"><defs><style>.cls-1,.cls-3,.cls-4,.cls-7,.cls-8,.cls-9{fill:none;stroke-miterlimit:10;}.cls-1{stroke:#000;}.cls-1,.cls-4{stroke-width:2.08217px;}.cls-2{fill:#06212f;}.cls-3{stroke:#06212f;}.cls-3,.cls-9{stroke-width:10.41085px;}.cls-4,.cls-7{stroke:#78cbf2;}.cls-5{fill:#041721;}.cls-6{opacity:0.5;}.cls-7{stroke-width:2.77623px;}.cls-8,.cls-9{stroke:#00a4e6;}.cls-8{stroke-width:6.94057px;}.cls-10{fill:#78cbf2;}.cls-11{fill:#fff;}.cls-12{fill:#0d87c1;}.cls-13{fill:#064259;}</style></defs><title>Contact-Ilustratie</title><g id="Layer_2" data-name="Layer 2"><g id="Contact"><polygon points="262.69 108.616 271.626 104.995 271.406 119.198 256.362 115.376 262.69 108.616"/><rect x="266.58001" y="88.41594" width="10.76557" height="30.89251" rx="5.38278" ry="5.38278" transform="translate(543.92559 207.72439) rotate(-180)"/><polygon points="320.728 82.637 329.664 79.016 329.445 93.219 314.401 89.397 320.728 82.637"/><rect x="324.61821" y="62.43694" width="10.76557" height="30.89251" rx="5.38278" ry="5.38278" transform="translate(660.00199 155.76639) rotate(-180)"/><path class="cls-1" d="M411.00777,8.77375c9.01428-10.77566,33.31142-11.35841,44.44437,5.10884,10.96249,16.21511.41284,34.92466-13.33317,43.631-6.29961,3.99-16.69882,10.23259-24.00767,9.205"/><path class="cls-2" d="M393.37955,21.02641c.119.5948,6.42381,17.36807,6.42381,17.36807l7.37548-4.04462-7.6134-17.84391Z"/><circle class="cls-2" cx="490.74479" cy="220.35191" r="28.21125"/><line class="cls-3" x1="203.60365" y1="34.09325" x2="228.55734" y2="104.77839"/><path class="cls-4" d="M473.10532,241.53943c0,1.03776-23.86857,65.72506-23.86857,65.72506"/><line class="cls-4" x1="426.75186" y1="293.08171" x2="477.25638" y2="241.53943"/><line class="cls-4" x1="408.0721" y1="275.78564" x2="468.95426" y2="237.73429"/><line class="cls-4" x1="396.31078" y1="253.30075" x2="463.41952" y2="222.85967"/><path class="cls-4" d="M389.39235,203.14215l72.64349,12.79909c-.8648,0-71.95165,13.49093-71.95165,13.49093"/><path class="cls-4" d="M398.04038,177.88989c1.03776.69184,65.03322,34.24622,65.03322,34.24622"/><line class="cls-4" x1="411.53132" y1="157.48053" x2="468.95426" y2="200.7207"/><line class="cls-4" x1="429.51923" y1="139.83854" x2="472.41348" y2="196.91557"/><path class="cls-4" d="M451.31227,126.00169c1.03776,1.03776,24.2145,67.45467,24.2145,67.45467"/><path class="cls-4" d="M503.89232,119.42918c-.173,1.90257-7.26435,71.95165-7.26435,71.95165"/><path class="cls-4" d="M502.16272,192.76451s26.80891-65.898,26.98187-66.76283"/><line class="cls-4" x1="498.35758" y1="194.1482" x2="550.59171" y2="138.80078"/><path class="cls-4" d="M477.6023,120.46694c0,1.21072,2.76737,71.95165,2.76737,71.95165"/><path class="cls-4" d="M571.00107,159.21014c0,.8648-63.30361,39.435-63.30361,39.435"/><line class="cls-4" x1="588.29714" y1="233.58323" x2="517.72918" y2="216.28716"/><line class="cls-4" x1="582.41648" y1="181.69503" x2="517.38326" y2="211.09834"/><line class="cls-4" x1="568.2337" y1="280.62854" x2="509.08114" y2="240.50166"/><line class="cls-4" x1="581.72463" y1="258.48957" x2="519.11286" y2="226.31888"/><line class="cls-4" x1="589.68083" y1="206.25544" x2="518.0751" y2="220.0923"/><line class="cls-4" x1="548.8621" y1="301.72975" x2="501.8168" y2="244.99864"/><line class="cls-4" x1="473.79716" y1="316.60436" x2="478.29414" y2="244.65272"/><line class="cls-4" x1="499.04942" y1="317.64213" x2="496.62798" y2="246.38232"/><line class="cls-4" x1="524.99353" y1="311.06962" x2="504.58417" y2="243.26903"/><path class="cls-5" d="M369.83623,219.14393A120.41154,120.41154,0,1,0,490.24778,98.73239,120.41154,120.41154,0,0,0,369.83623,219.14393Zm24.50489,0a95.90665,95.90665,0,1,1,95.90665,95.90665A95.90667,95.90667,0,0,1,394.34113,219.14393Z"/><path class="cls-6" d="M483.8247,110.883A111.37022,111.37022,0,1,0,595.19491,222.25321,111.37024,111.37024,0,0,0,483.8247,110.883Zm6.42307,12.35433a95.90665,95.90665,0,1,1-95.90665,95.90665A95.9067,95.9067,0,0,1,490.24778,123.23728Z"/><path class="cls-4" d="M550.59171,138.80078"/><rect x="488.71676" y="118.04251" width="3.78645" height="18.58804" rx="1.89322" ry="1.89322" transform="translate(981.21997 254.67304) rotate(180)"/><path class="cls-1" d="M450.27451,152.29171c-1.62547,4.73331-1.11322,10.86108-2.03244,15.91178-1.07229,5.89175-2.57586,11.70741-3.17425,17.65247-1.13347,11.26093,1.29747,22.45,8.52589,31.31235,2.53005,3.10195,6.39625,5.83471,8.44214,9.15058"/><path class="cls-4" d="M111.33432,245.83534c.33078.98364-1.67423,69.90486-1.67423,69.90486"/><line class="cls-4" x1="83.82733" y1="309.46407" x2="115.26887" y2="244.51222"/><line class="cls-4" x1="60.60889" y1="299.02418" x2="106.18692" y2="243.55179"/><line class="cls-4" x1="42.29412" y1="281.46091" x2="96.19969" y2="231.21717"/><path class="cls-4" d="M19.74886,236.12372,92.683,225.10064c-.8197.27565-63.8986,35.72133-63.8986,35.72133"/><path class="cls-4" d="M19.89685,209.43209c1.20416.325,72.5569,11.73111,72.5569,11.73111"/><line class="cls-4" x1="26.17878" y1="185.78712" x2="94.38911" y2="208.46879"/><line class="cls-4" x1="37.60521" y1="163.33179" x2="96.45504" y2="203.75952"/><path class="cls-4" d="M53.85116,143.27027c1.31442.65286,44.45218,56.21812,44.45218,56.21812"/><path class="cls-4" d="M101.59376,120.28107c.44249,1.85846,16.04861,70.5142,16.04861,70.5142"/><path class="cls-4" d="M123.32947,190.34263s4.40607-71.006,4.29436-71.88084"/><line class="cls-4" x1="120.16385" y1="192.867" x2="152.03192" y2="123.75718"/><path class="cls-4" d="M77.00577,129.64446c.38591,1.14757,25.55709,67.31666,25.55709,67.31666"/><path class="cls-4" d="M177.88209,136.59668c.27565.8197-47.43214,57.55572-47.43214,57.55572"/><line class="cls-4" x1="217.9819" y1="201.57758" x2="145.58168" y2="207.67667"/><line class="cls-4" x1="195.86898" y1="154.27021" x2="143.59991" y2="202.86875"/><line class="cls-4" x1="213.9603" y1="252.56413" x2="145.10291" y2="233.38467"/><line class="cls-4" x1="219.69093" y1="227.27977" x2="150.09074" y2="216.74411"/><line class="cls-4" x1="210.58289" y1="175.23413" x2="147.12242" y2="211.17308"/><line class="cls-4" x1="202.32495" y1="278.73928" x2="139.65084" y2="239.96255"/><line class="cls-4" x1="135.91648" y1="316.76446" x2="117.24484" y2="247.13235"/><line class="cls-4" x1="160.1824" y1="309.69913" x2="135.1737" y2="242.92796"/><line class="cls-4" x1="182.67835" y1="295.19994" x2="141.72257" y2="237.44108"/><path class="cls-5" d="M6.31322,257.52424A120.41154,120.41154,0,1,0,82.06394,105.0129,120.41154,120.41154,0,0,0,6.31322,257.52424ZM29.54,249.71348A95.90665,95.90665,0,1,1,151.0138,310.04821,95.90667,95.90667,0,0,1,29.54,249.71348Z"/><path class="cls-6" d="M79.84879,118.577a111.37022,111.37022,0,1,0,141.05974,70.06288A111.37024,111.37024,0,0,0,79.84879,118.577Zm10.02591,9.66263A95.90665,95.90665,0,1,1,29.54,249.71348,95.9067,95.9067,0,0,1,89.8747,128.23965Z"/><path class="cls-4" d="M152.03192,123.75718"/><path d="M91.52462,122.71561h0a1.89322,1.89322,0,0,1,1.89322,1.89322v14.80159a1.89322,1.89322,0,0,1-1.89322,1.89322h0a1.89322,1.89322,0,0,1-1.89322-1.89322V124.60884a1.89323,1.89323,0,0,1,1.89323-1.89323Z" transform="translate(220.35239 227.9612) rotate(161.41318)"/><rect x="308.21958" y="231.12606" width="29.26546" height="13.20698" rx="6.60348" ry="6.60348" transform="translate(645.70461 475.4591) rotate(-180)"/><path class="cls-7" d="M271.62562,256.06725,111.72209,281.56538a10.2077,10.2077,0,0,1-9.52078-3.63242h0a10.2077,10.2077,0,0,1,1.08478-14.03526l24.127-21.71426"/><circle class="cls-2" cx="120.83502" cy="220.35191" r="25.9837"/><circle class="cls-7" cx="120.83502" cy="220.35191" r="25.9837"/><rect class="cls-2" x="442.78068" y="48.67683" width="8.8368" height="181.52251" rx="4.41839" ry="4.41839" transform="translate(913.22831 92.03823) rotate(156.87477)"/><path class="cls-2" d="M385.99608,12.53374l24.75154-5.30662s7.25652,1.66543,2.855,10.23051l-23.932,8.68278Z"/><path d="M243.512,17.59095c-6.43138-.6886-14.81527,4.13-20.32693,6.89531a70.08654,70.08654,0,0,0-9.15645,5.04605c-2.36473,1.66686-4.277,4.22913-6.94354,5.35611-6.22639,2.63153-13.32117,3.08024-19.18421-.74331-2.44857-1.59682-12.10308-10.38463-14.34139-12.204-3.36334-2.73376-3.73327-3.93939,2.28178-4.19355,17.51422-.74,34.53823-3.99619,48.46236-2.94554C230.362,15.25921,237.73831,14.69146,243.512,17.59095Z"/><path d="M458.592,219.14393a31.65577,31.65577,0,1,0,31.65577-31.65577A31.65577,31.65577,0,0,0,458.592,219.14393Zm6.44225,0a25.21352,25.21352,0,1,1,25.21352,25.21352A25.21352,25.21352,0,0,1,465.03426,219.14393Z"/><polyline class="cls-8" points="117.03 216.129 234.136 117.961 408.443 41.437"/><line class="cls-8" x1="263.12293" y1="235.45393" x2="117.41664" y2="221.54033"/><line class="cls-9" x1="228.08244" y1="106.2031" x2="268.14728" y2="226.95118"/><ellipse class="cls-2" cx="228.07456" cy="105.26739" rx="9.57072" ry="3.56248" transform="matrix(0.94985, -0.3127, 0.3127, 0.94985, -21.47976, 76.59912)"/><path class="cls-2" d="M254.95506,18.58048c.65282-3.12892-6.6998-5.66584-9.188-6.21329-5.11044-1.12441-10.817-.44656-15.96566-.15-6.41145.36925-12.78988,1.11251-19.24071,1.3982a208.2228,208.2228,0,0,1-24.91085-.81635c-5.58882-.42023-11.07212-.657-16.67333-.91166-2.20026-.10005-9.404-1.18771-8.15646,2.8068,1.2834,4.10931,10.01012,5.45549,13.36169,6.89789a41.48137,41.48137,0,0,0,18.66663,3.57749c5.511-.28028,10.42151-2.24582,15.59044-3.95012,10.64028-3.50832,21.29961-3.70587,32.32973-2.37C243.04549,19.12518,253.15468,21.16848,254.95506,18.58048Z"/><path class="cls-10" d="M170.39463,11.952c5.10952.23166,10.14016.46238,15.25527.847a208.22534,208.22534,0,0,0,24.9108.81636c6.45086-.28569,12.82929-1.02895,19.24076-1.3982,5.14858-.29653,10.85523-.97439,15.96568.15a25.14027,25.14027,0,0,1,6.36428,2.46959c-1.26272-.18588-2.29389-.35995-2.85239-.4276-11.0301-1.33586-21.68944-1.13833-32.32972,2.37-5.16891,1.7043-10.0795,3.66983-15.59043,3.95012a41.48189,41.48189,0,0,1-18.66667-3.57748C179.85225,15.92959,173.1545,14.77574,170.39463,11.952Z"/><path class="cls-10" d="M413.8087,36.10565l7.56157,17.79193a6.60918,6.60918,0,0,1-3.60774,8.71343l-7.35941,2.97207a6.63307,6.63307,0,0,1-8.34607-3.04693h0a1.00885,1.00885,0,0,0-1.43894-.37545h0a92.37677,92.37677,0,0,0-27.54581,27.58018L285.92756,225.04455l-13.25519-11.046L372.67009,62.07219A37.72729,37.72729,0,0,1,385.40052,50.0953l12.09158-6.94146-.70407-1.6093a4.527,4.527,0,0,1,2.46615-6.01769l6.71049-2.68419A6.07254,6.07254,0,0,1,413.8087,36.10565Z"/><path class="cls-11" d="M366.46,78.92068,279.31518,214.22432l-4.38581-3.65485L372.67012,62.07218A37.72671,37.72671,0,0,1,385.40053,50.0953l12.0916-6.94146-.70405-1.60931a4.52692,4.52692,0,0,1,2.46614-6.01769l6.71046-2.6842a6.047,6.047,0,0,1,4.43308-.02446l4.36014,10.25917a6.60918,6.60918,0,0,1-3.60771,8.71343l-7.35944,2.97207a6.63306,6.63306,0,0,1-8.346-3.04692,1.00884,1.00884,0,0,0-1.43895-.37545v0A92.37649,92.37649,0,0,0,366.46,78.92068Z"/><circle cx="265.77489" cy="233.83469" r="24.68215"/><circle class="cls-7" cx="265.77489" cy="233.83469" r="24.68215"/><path class="cls-2" d="M267.20522,227.79455l56.016,2.04937a4.76037,4.76037,0,0,1,4.58438,4.62123h0a4.76037,4.76037,0,0,1-4.64512,4.895l-56.35513,1.34179a4.76037,4.76037,0,0,1-4.85006-5.2327l.33912-3.39116A4.76037,4.76037,0,0,1,267.20522,227.79455Z"/><path class="cls-1" d="M412.66555,14.576c8.85887-7.40827,30.19731.22442,29.38168,14.05129-.41726,7.073-4.05014,13.92435-5.14724,20.85078-1.37665,8.69127-.57031,15.88716,3.30691,23.74365,3.44421,6.97908,7.53122,13.66693,9.12669,21.40795,1.82744,8.86648-.83459,18.46143-5.08011,26.21429"/><rect x="415.05406" y="70.58522" width="14.51305" height="20.93685" rx="4.34202" ry="4.34202" transform="translate(842.62891 -9.76723) rotate(156.94258)"/><circle cx="387.00127" cy="19.66713" r="7.37548"/><ellipse class="cls-2" cx="412.57427" cy="12.26577" rx="4.35327" ry="5.75928"/><circle cx="490.24778" cy="219.14393" r="15.75627"/><circle cx="120.83502" cy="220.35191" r="11.51963"/><circle class="cls-12" cx="265.77489" cy="233.83469" r="11.85614"/><ellipse class="cls-2" cx="402.82203" cy="34.28935" rx="4.31304" ry="0.9922" transform="translate(14.1969 145.69784) rotate(-20.86164)"/><rect x="311.30979" y="71.99794" width="10.76557" height="18.32078" rx="5.38278" ry="5.38278" transform="translate(633.38516 162.31665) rotate(180)"/><circle class="cls-13" cx="316.72118" cy="76.32019" r="1.00672"/><circle class="cls-13" cx="316.72118" cy="84.3147" r="1.00672"/><rect x="253.2716" y="97.97694" width="10.76557" height="18.32078" rx="5.38278" ry="5.38278" transform="translate(517.30877 214.27466) rotate(-180)"/><circle class="cls-13" cx="258.68299" cy="102.2992" r="1.00672"/><circle class="cls-13" cx="258.68299" cy="110.2937" r="1.00672"/></g></g></svg>