<svg xmlns="http://www.w3.org/2000/svg" width="134.78076" height="19.76758" viewBox="0 0 134.78076 19.76758"><defs><style>.cls-1{fill:#fff;}</style></defs><title>Logo-Ciclocurier_1</title><g id="Layer_2" data-name="Layer 2"><g id="Footer"><path class="cls-1" d="M7.5835,6.9375A5.84208,5.84208,0,0,1,12.5166,9.33789l1.395-.86719A5.88115,5.88115,0,0,0,12.416,6.77344a7.30042,7.30042,0,0,0-2.14258-1.08008,8.347,8.347,0,0,0-2.62012-.415,8.00986,8.00986,0,0,0-3.9082.95508A7.03576,7.03576,0,0,0,.999,8.8916,7.16008,7.16008,0,0,0,0,12.58008a6.70232,6.70232,0,0,0,2.13672,5.01367,7.43416,7.43416,0,0,0,5.37842,2.06152,8.40244,8.40244,0,0,0,3.76367-.81445,6.58035,6.58035,0,0,0,2.63281-2.29l-1.395-.917a6.0049,6.0049,0,0,1-4.92041,2.40039,6.05753,6.05753,0,0,1-2.96826-.72852,5.31928,5.31928,0,0,1-2.084-2.0459,5.54292,5.54292,0,0,1-.75928-2.81152,5.24488,5.24488,0,0,1,1.65039-3.9043A5.70707,5.70707,0,0,1,7.5835,6.9375Z"/><rect class="cls-1" x="17.02832" y="5.62988" width="1.75928" height="13.67285"/><path class="cls-1" d="M17.90186,0a1.38061,1.38061,0,0,0-1.01367.42773A1.4067,1.4067,0,0,0,16.46289,1.458a1.391,1.391,0,0,0,.42529,1.01758,1.42948,1.42948,0,0,0,2.03955,0A1.39287,1.39287,0,0,0,19.353,1.458,1.40861,1.40861,0,0,0,18.92773.42773,1.39431,1.39431,0,0,0,17.90186,0Z"/><path class="cls-1" d="M29.38721,6.9375a5.84208,5.84208,0,0,1,4.93311,2.40039l1.395-.86719a5.88115,5.88115,0,0,0-1.49561-1.69727,7.30042,7.30042,0,0,0-2.14258-1.08008,8.347,8.347,0,0,0-2.62012-.415,8.00986,8.00986,0,0,0-3.9082.95508,7.03576,7.03576,0,0,0-2.74609,2.6582,7.16008,7.16008,0,0,0-.999,3.68848,6.70232,6.70232,0,0,0,2.13672,5.01367,7.43416,7.43416,0,0,0,5.37842,2.06152,8.40244,8.40244,0,0,0,3.76367-.81445,6.58035,6.58035,0,0,0,2.63281-2.29l-1.395-.917a6.2995,6.2995,0,0,1-7.88867,1.67188,5.31928,5.31928,0,0,1-2.084-2.0459,5.54292,5.54292,0,0,1-.75928-2.81152,5.24488,5.24488,0,0,1,1.65039-3.9043A5.70707,5.70707,0,0,1,29.38721,6.9375Z"/><rect class="cls-1" x="38.83203" y="0.35254" width="1.75928" height="18.9502"/><path class="cls-1" d="M60.36963,3.1543A9.59017,9.59017,0,0,0,53.34082.35254a9.5196,9.5196,0,0,0-8.33105,4.85059A9.84716,9.84716,0,0,0,43.7207,10.1416a9.2554,9.2554,0,0,0,2.8291,6.81152,9.46115,9.46115,0,0,0,6.94141,2.81445A9.36046,9.36046,0,0,0,60.376,16.94043a9.37858,9.37858,0,0,0,2.82324-6.88672A9.33092,9.33092,0,0,0,60.36963,3.1543ZM46.66309,6.09863A7.65943,7.65943,0,0,1,49.34326,3.3457l3.52246,6.23535a1.032,1.032,0,0,0-.1626.167l-6.17334-3.376C46.57666,6.28223,46.6123,6.1875,46.66309,6.09863Zm-1.03223,4.03711a8.10272,8.10272,0,0,1,.74121-3.4375L52.5249,10.0625a1.10391,1.10391,0,0,0-.03467.1709h-6.855C45.63477,10.2002,45.63086,10.16895,45.63086,10.13574Zm.02.459h6.83936a1.10743,1.10743,0,0,0,.03955.19531l-5.8291,3.35645A7.53184,7.53184,0,0,1,45.65088,10.59473Zm7.7124,7.374A7.52816,7.52816,0,0,1,47.915,15.70117a8.063,8.063,0,0,1-1.02686-1.24512l5.82813-3.35645a1.12628,1.12628,0,0,0,.14795.14551l-3.23486,5.69336.31445.17773,3.23193-5.6875a1.1701,1.1701,0,0,0,.1875.03809Zm0-8.6084a1.15589,1.15589,0,0,0-.18555.03711L49.65234,3.1582a7.602,7.602,0,0,1,3.71094-1.00488Zm4.01123-6.1416a7.66387,7.66387,0,0,1,2.88867,2.84863c.05029.08691.08545.17969.13184.26855L54.37549,9.7373a1.0532,1.0532,0,0,0-.19678-.18457l3.18262-6.34082ZM53.7251,2.16895a7.76805,7.76805,0,0,1,3.312.88281L53.85742,9.3877a1.00962,1.00962,0,0,0-.13232-.02734Zm0,15.7832V11.4668a1.08438,1.08438,0,0,0,.18848-.03906l3.21094,5.63672A7.86819,7.86819,0,0,1,53.7251,17.95215Zm6.53809-3.87988a7.46612,7.46612,0,0,1-2.81641,2.82813l-3.22217-5.65723a1.0647,1.0647,0,0,0,.17236-.18457l5.80273,3.001.166-.32129-5.7998-2.999a1.18359,1.18359,0,0,0,.0293-.14453h6.66162A7.921,7.921,0,0,1,60.26318,14.07227Zm-5.668-3.83887a1.09361,1.09361,0,0,0-.03711-.18457l5.99609-3.3877a7.92146,7.92146,0,0,1,.73486,3.38672c0,.06348-.00977.123-.01074.18555Z"/><path class="cls-1" d="M73.56006,6.9375a5.84208,5.84208,0,0,1,4.93311,2.40039l1.395-.86719a5.88115,5.88115,0,0,0-1.49561-1.69727A7.30042,7.30042,0,0,0,76.25,5.69336a8.347,8.347,0,0,0-2.62012-.415,8.00986,8.00986,0,0,0-3.9082.95508,7.03576,7.03576,0,0,0-2.74609,2.6582,7.16008,7.16008,0,0,0-.999,3.68848,6.70232,6.70232,0,0,0,2.13672,5.01367,7.43416,7.43416,0,0,0,5.37842,2.06152,8.40244,8.40244,0,0,0,3.76367-.81445,6.58035,6.58035,0,0,0,2.63281-2.29l-1.395-.917a6.2995,6.2995,0,0,1-7.88867,1.67188,5.31928,5.31928,0,0,1-2.084-2.0459,5.54292,5.54292,0,0,1-.75928-2.81152,5.24488,5.24488,0,0,1,1.65039-3.9043A5.70707,5.70707,0,0,1,73.56006,6.9375Z"/><path class="cls-1" d="M93.209,12.01465a13.168,13.168,0,0,1-.26416,3.35449,3.62835,3.62835,0,0,1-1.41553,1.86621,4.28184,4.28184,0,0,1-2.49854.71094,4.37283,4.37283,0,0,1-2.53613-.72949,3.58489,3.58489,0,0,1-1.44092-1.98535,13.60892,13.60892,0,0,1-.252-3.2168V5.62988H83.04248v6.585a11.05616,11.05616,0,0,0,.65967,4.36719,5.00428,5.00428,0,0,0,1.998,2.2627,6.346,6.346,0,0,0,3.33691.81055,6.27546,6.27546,0,0,0,3.32373-.81055,5.04418,5.04418,0,0,0,1.98584-2.24316,10.62491,10.62491,0,0,0,.65967-4.26074V5.62988H93.209Z"/><path class="cls-1" d="M101.74219,5.8623a6.316,6.316,0,0,0-1.69629,1.76563v-1.998H98.24854V19.30273h1.79736v-4.624a21.48956,21.48956,0,0,1,.32666-4.72559A4.56818,4.56818,0,0,1,101.6167,7.71,2.54437,2.54437,0,0,1,103.313,6.9873a2.45157,2.45157,0,0,1,.93018.23926l.917-1.4834a3.21222,3.21222,0,0,0-1.55811-.46484A3.35276,3.35276,0,0,0,101.74219,5.8623Z"/><path class="cls-1" d="M107.26563,0A1.379,1.379,0,0,0,106.252.42773a1.40716,1.40716,0,0,0-.42578,1.03027,1.39144,1.39144,0,0,0,.42578,1.01758,1.379,1.379,0,0,0,1.01367.42773,1.39431,1.39431,0,0,0,1.02588-.42773A1.39287,1.39287,0,0,0,108.7168,1.458,1.40861,1.40861,0,0,0,108.2915.42773,1.39431,1.39431,0,0,0,107.26563,0Z"/><rect class="cls-1" x="106.39209" y="5.62988" width="1.75928" height="13.67285"/><path class="cls-1" d="M123.74561,7.92969a6.74527,6.74527,0,0,0-5.58447-2.65137,6.5312,6.5312,0,0,0-5.42139,2.58887,7.31038,7.31038,0,0,0-1.59717,4.63672,7.398,7.398,0,0,0,1.88672,4.958,6.53524,6.53524,0,0,0,5.23242,2.19336,7.50393,7.50393,0,0,0,2.7041-.459,6.689,6.689,0,0,0,2.15137-1.33887,8.07767,8.07767,0,0,0,1.68555-2.31152l-1.48291-.7793a8.21558,8.21558,0,0,1-1.49756,1.94043,5.35366,5.35366,0,0,1-1.67969.96387,5.84387,5.84387,0,0,1-2.03223.36328,4.85614,4.85614,0,0,1-3.63623-1.52344,5.5676,5.5676,0,0,1-1.522-3.90625h12.30273A7.40472,7.40472,0,0,0,123.74561,7.92969ZM113.12793,11.084a5.84278,5.84278,0,0,1,1.59766-2.82715A5.01273,5.01273,0,0,1,118.186,6.96191a5.45021,5.45021,0,0,1,2.32764.51563A4.85089,4.85089,0,0,1,122.29395,8.835a5.8344,5.8344,0,0,1,1.02588,2.249Z"/><path class="cls-1" d="M133.22266,5.27832a3.3531,3.3531,0,0,0-1.86035.584A6.316,6.316,0,0,0,129.666,7.62793v-1.998h-1.79688V19.30273H129.666v-4.624a21.48956,21.48956,0,0,1,.32666-4.72559A4.572,4.572,0,0,1,131.23682,7.71a2.54456,2.54456,0,0,1,1.69678-.72266,2.44952,2.44952,0,0,1,.92969.23926l.91748-1.4834A3.21516,3.21516,0,0,0,133.22266,5.27832Z"/></g></g></svg>