<svg xmlns="http://www.w3.org/2000/svg" width="272.42871" height="60.14844" viewBox="0 0 272.42871 60.14844"><defs><style>.cls-1{font-size:51.47407px;stroke-width:0.14865px;font-family:CenturyGothic, Century Gothic;}.cls-1,.cls-2{fill:#fff;stroke:#fff;stroke-miterlimit:10;}.cls-2{stroke-width:0.72295px;}</style></defs><title>Ciclocurier-Logo</title><g id="Layer_2" data-name="Layer 2"><g id="Header"><text class="cls-1" transform="translate(0.07422 44.29004)">ciclOcurier</text><path class="cls-2" d="M111.61457,26.51237a1.81624,1.81624,0,1,1-1.813-1.81959,1.81459,1.81459,0,0,1,1.813,1.81959"/><line class="cls-2" x1="109.80154" y1="26.51237" x2="109.80154" y2="7.74478"/><line class="cls-2" x1="109.80154" y1="26.51237" x2="109.80154" y2="7.74478"/><line class="cls-2" x1="109.80154" y1="26.51237" x2="109.80154" y2="44.29473"/><line class="cls-2" x1="109.80154" y1="26.51237" x2="109.80154" y2="44.29473"/><line class="cls-2" x1="109.80154" y1="26.51237" x2="127.0347" y2="26.51237"/><line class="cls-2" x1="109.80154" y1="26.51237" x2="127.0347" y2="26.51237"/><line class="cls-2" x1="109.80154" y1="26.51237" x2="91.64336" y2="26.51237"/><line class="cls-2" x1="109.80154" y1="26.51237" x2="91.64336" y2="26.51237"/><line class="cls-2" x1="109.80154" y1="26.51237" x2="94.77168" y2="18.2932"/><line class="cls-2" x1="109.80154" y1="26.51237" x2="94.77168" y2="18.2932"/><line class="cls-2" x1="109.80154" y1="26.51237" x2="101.47138" y2="11.76744"/><line class="cls-2" x1="109.80154" y1="26.51237" x2="101.47138" y2="11.76744"/><line class="cls-2" x1="109.80154" y1="26.51237" x2="117.20175" y2="11.76744"/><line class="cls-2" x1="109.80154" y1="26.51237" x2="117.20175" y2="11.76744"/><line class="cls-2" x1="109.80154" y1="26.51237" x2="124.34949" y2="18.2932"/><line class="cls-2" x1="109.80154" y1="26.51237" x2="124.34949" y2="18.2932"/><line class="cls-2" x1="109.80154" y1="26.51237" x2="123.27869" y2="33.48178"/><line class="cls-2" x1="109.80154" y1="26.51237" x2="123.27869" y2="33.48178"/><line class="cls-2" x1="109.80154" y1="26.51237" x2="117.74107" y2="40.45075"/><line class="cls-2" x1="109.80154" y1="26.51237" x2="117.74107" y2="40.45075"/><line class="cls-2" x1="109.80154" y1="26.51237" x2="102.28626" y2="39.73853"/><line class="cls-2" x1="109.80154" y1="26.51237" x2="102.28626" y2="39.73853"/><line class="cls-2" x1="109.80154" y1="26.51237" x2="95.84318" y2="34.55109"/><line class="cls-2" x1="109.80154" y1="26.51237" x2="95.84318" y2="34.55109"/></g></g></svg>