<svg xmlns="http://www.w3.org/2000/svg" width="417.02029" height="75.40836" viewBox="0 0 417.02029 75.40836"><defs><style>.cls-1{opacity:0.5;}.cls-2{fill:#00a4e6;}</style></defs><title>Clienti-Logo-Placeholder</title><g id="Layer_2" data-name="Layer 2"><g id="Clienti"><g id="layer1" class="cls-1"><g id="g1061"><g id="g1045"><path id="path1027" class="cls-2" d="M85.46288,23.46038h5.98479V17.715c0-6.94236,3.83028-11.4908,11.49081-11.4908l3.83028.71818v6.94236l-4.06969-.71817c-2.39392,0-3.35147,1.43635-3.35147,3.83027v6.46358h7.66052v6.94236H99.3476v28.727H91.68708v-28.727h-6.2242Z"/><path id="path1029" class="cls-2" d="M126.39886,22.74221a18.53838,18.53838,0,0,1,18.67255,18.67255,18.67255,18.67255,0,0,1-37.34511,0A18.38812,18.38812,0,0,1,126.39886,22.74221Zm0,30.40274c7.18175,0,11.012-5.26662,11.012-11.73019s-3.83028-11.73019-11.012-11.73019-11.012,5.26662-11.012,11.73019C115.38683,47.63894,119.21711,53.14494,126.39886,53.14494Z"/><path id="path1031" class="cls-2" d="M166.856,22.74221a18.53838,18.53838,0,0,1,18.67255,18.67255,18.67255,18.67255,0,0,1-37.34511,0C148.42289,30.16334,157.041,22.7422,166.856,22.74221Zm0,30.40274c7.18175,0,11.012-5.26662,11.012-11.73019s-3.83028-11.73019-11.012-11.73019-11.012,5.26662-11.012,11.73019C155.844,47.63894,159.67428,53.14494,166.856,53.14494Z"/><path id="path1033" class="cls-2" d="M225.26758,59.12974h-6.94234l-.71815-3.11209-.47881-.47879-.47881.47879a13.94636,13.94636,0,0,1-9.81507,3.83027c-9.81507,0-18.19378-7.66053-18.19378-18.67255s8.37871-18.67255,18.19378-18.67255c3.83028,0,7.66056,1.43635,9.81507,3.83026l.47881.47879.47881-.47879V6.46357h7.66056ZM207.3132,29.44517c-7.18175,0-11.012,5.26662-11.012,11.73019s3.83028,11.73019,11.012,11.73019c6.4636,0,11.012-5.26662,11.012-11.73019C218.32523,34.95118,213.77681,29.44517,207.3132,29.44517Z"/><path id="path1035" class="cls-2" d="M232.92814,23.46038h6.94234l.71815,3.11209.47881.47879.47881-.47879a13.94636,13.94636,0,0,1,9.81507-3.83027c9.81507,0,18.19378,7.66053,18.19378,18.67255S261.1764,60.0873,251.36132,60.0873c-3.83028,0-7.66056-1.43635-9.81507-3.83027l-.47881-.47878-.47881.47879V75.40836h-7.42116v-51.948Zm17.715,29.68456c7.18175,0,11.012-5.26662,11.012-11.73019s-3.83028-11.73019-11.012-11.73019c-6.4636,0-11.012,5.26662-11.012,11.73019C239.63108,47.63893,244.1795,53.14494,250.6431,53.14494Z"/><path id="path1037" class="cls-2" d="M288.467,36.86631h6.2242V35.19057c0-4.309-2.87273-6.22418-6.94234-6.22418-3.35147,0-5.506,1.67574-6.70294,4.78783l-6.703-1.43635c1.43636-5.98479,6.70294-9.81506,13.64535-9.81506,9.57567,0,14.3635,4.78783,14.3635,14.12411V58.89034h-6.2242l-.71815-4.78783c-2.39392,3.59087-6.2242,5.26662-11.25144,5.26662-6.4636,0-11.012-3.83027-11.012-11.012C272.9065,41.41475,279.13069,36.86631,288.467,36.86631Zm-3.35147,16.27863a9.03784,9.03784,0,0,0,6.4636-2.39392,8.35266,8.35266,0,0,0,2.87273-6.703v-.71817h-6.4636c-4.54843,0-7.42116,2.15452-7.42116,5.506A4.21348,4.21348,0,0,0,285.11549,53.14494Z"/><path id="path1039" class="cls-2" d="M309.05465,23.46038H315.997l.71815,3.11209.47881.47879.47881-.47879c1.43636-2.39392,5.26665-3.83027,8.37871-3.83027,9.09685,0,14.3635,5.98479,14.3635,14.3635v22.024h-7.66056V37.1057c-.23941-4.78783-2.63332-7.66053-7.66056-7.66053a8.43456,8.43456,0,0,0-8.37871,8.13931V59.12973h-7.66056Z"/><path id="path1041" class="cls-2" d="M381.351,59.12974h-6.94234l-.71815-3.11209-.47881-.47879-.47881.47879a13.94636,13.94636,0,0,1-9.81507,3.83027c-9.81507,0-18.19378-7.66053-18.19378-18.67255s8.37871-18.67255,18.19378-18.67255c3.83028,0,7.66056,1.43635,9.81507,3.83026l.47881.47879.47881-.47879V6.46357H381.351ZM363.636,29.44517c-7.18175,0-11.012,5.26662-11.012,11.73019s3.83028,11.73019,11.012,11.73019c6.4636,0,11.012-5.26662,11.012-11.73019C374.648,34.95118,370.09959,29.44517,363.636,29.44517Z"/><path id="path1043" class="cls-2" d="M403.1356,36.86631h6.2242V35.19057c0-4.309-2.87273-6.22418-6.94234-6.22418-3.35147,0-5.506,1.67574-6.70294,4.78783l-6.70308-1.43635c1.43636-5.98479,6.70294-9.81506,13.64535-9.81506,9.57567,0,14.3635,4.78783,14.3635,14.12411V58.89034h-6.2242l-.71815-4.78783c-2.39392,3.59087-6.2242,5.26662-11.25144,5.26662-6.4636,0-11.012-3.83027-11.012-11.012-.23941-6.94236,5.74538-11.4908,15.321-11.4908Zm-3.35147,16.27863a9.03784,9.03784,0,0,0,6.4636-2.39392,8.35266,8.35266,0,0,0,2.87273-6.703v-.71817h-6.4636c-4.54843,0-7.42116,2.15452-7.42116,5.506A4.21348,4.21348,0,0,0,399.78414,53.14494Z"/></g><g id="g1059"><path id="path1047" class="cls-2" d="M32.55731,47.87833c4.30906,0,7.89993-3.11209,7.89993-6.94236H24.65738C24.65738,44.76624,28.00885,47.87833,32.55731,47.87833Z"/><g id="g1057"><path id="path1049" class="cls-2" d="M59.1298,14.84228a7.8694,7.8694,0,0,0,2.87269-6.46357A8.38237,8.38237,0,0,0,53.38438,0a8.14948,8.14948,0,0,0-7.18175,3.83027A30.99283,30.99283,0,0,0,32.31791.71818,32.84153,32.84153,0,0,0,18.43318,3.83027,8.14948,8.14948,0,0,0,11.25144,0,8.534,8.534,0,0,0,2.63332,8.37871,9.04148,9.04148,0,0,0,5.506,14.84228,31.21936,31.21936,0,0,0,0,32.79666a32.31787,32.31787,0,0,0,64.63574,0,30.67805,30.67805,0,0,0-5.506-17.95437ZM32.55731,62.48121A29.834,29.834,0,0,1,2.87277,32.79665,30.689,30.689,0,0,1,7.9,16.03924,28.14524,28.14524,0,0,1,19.63018,5.98479a29.23425,29.23425,0,0,1,12.92713-2.8727,29.23414,29.23414,0,0,1,12.92713,2.8727A31.7438,31.7438,0,0,1,57.21462,16.03924a30.689,30.689,0,0,1,5.02724,16.75741A29.834,29.834,0,0,1,32.55731,62.48121Z"/><path id="path1051" class="cls-2" d="M32.55731,39.02083c.47878.23939,5.506-1.67574,5.506-4.06966,0-1.43635-4.06965-1.67574-5.506-1.67574s-5.506.23939-5.506,1.67574C26.81189,37.34509,32.07854,39.26022,32.55731,39.02083Z"/><path id="path1053" class="cls-2" d="M51.22987,18.91194c-2.87269-1.91513-9.09689-2.8727-11.49081.23939,0,0-3.1121,3.35148,0,6.703s5.26661,6.703,5.98479,9.33627c.71818,2.8727,1.91514,3.83027,4.06965,3.83027s6.46357-3.35148,7.18175-8.85749A12.02119,12.02119,0,0,0,51.22987,18.91194ZM44.7663,25.85429A1.67574,1.67574,0,1,1,46.442,24.17855,1.63633,1.63633,0,0,1,44.7663,25.85429Z"/><path id="path1055" class="cls-2" d="M25.13619,19.15133c-2.39392-3.11209-8.61811-2.15452-11.49081-.23939A12.28875,12.28875,0,0,0,7.9,30.16334c.47878,5.506,4.78783,8.85749,7.18175,8.85749,2.15451,0,3.35147-1.197,4.06965-3.83027.71818-2.8727,3.1121-5.98479,5.98479-9.33627A4.8113,4.8113,0,0,0,25.13619,19.15133Zm-4.54843,6.703a1.67574,1.67574,0,1,1,1.67573-1.67574A1.63633,1.63633,0,0,1,20.58777,25.85429Z"/></g></g></g></g></g></g></svg>