<svg xmlns="http://www.w3.org/2000/svg" width="1864.30908" height="273.43164" viewBox="0 0 1864.30908 273.43164"><defs><style>.cls-1{fill:#fff;}</style></defs><title>Logo-Ciclocurier</title><g id="Layer_2" data-name="Layer 2"><g id="Layer_1-2" data-name="Layer 1"><path class="cls-1" d="M104.89746,95.95313q43.23413,0,68.23535,33.20117l19.29541-11.99414a81.393,81.393,0,0,0-20.686-23.4668q-12.16919-9.21094-29.6377-14.94922a115.42916,115.42916,0,0,0-36.24316-5.73633q-29.89966,0-54.06055,13.21094A97.36971,97.36971,0,0,0,13.81934,122.9834,99.07379,99.07379,0,0,0,0,174.002q0,40.85156,29.55078,69.35742,29.54956,28.51025,74.39844,28.50781,29.20312,0,52.06152-11.25781a91.11834,91.11834,0,0,0,36.41748-31.67773l-19.29541-12.68945q-26.39136,33.20361-68.06152,33.20117-22.74609,0-41.06152-10.07129a73.62644,73.62644,0,0,1-28.82324-28.30078,76.66418,76.66418,0,0,1-10.50293-38.89453q0-31.77393,22.83154-53.998Q70.34619,95.9541,104.89746,95.95313Z"/><rect class="cls-1" x="235.5376" y="77.875" width="24.33594" height="189.125"/><path class="cls-1" d="M247.61865,0a19.10811,19.10811,0,0,0-14.02051,5.91016,19.4713,19.4713,0,0,0-5.88281,14.25391,19.26437,19.26437,0,0,0,5.88281,14.08008,19.09687,19.09687,0,0,0,14.02051,5.91016,19.29123,19.29123,0,0,0,14.19141-5.91016,19.26719,19.26719,0,0,0,5.88574-14.08008,19.474,19.474,0,0,0-5.88574-14.25391A19.30247,19.30247,0,0,0,247.61865,0Z"/><path class="cls-1" d="M406.48975,95.95313q43.23413,0,68.23535,33.20117l19.29541-11.99414a81.393,81.393,0,0,0-20.686-23.4668q-12.16919-9.21094-29.6377-14.94922a115.42916,115.42916,0,0,0-36.24316-5.73633q-29.89966,0-54.06055,13.21094a97.36971,97.36971,0,0,0-37.98145,36.76465A99.07379,99.07379,0,0,0,301.59229,174.002q0,40.85156,29.55078,69.35742,29.54956,28.51025,74.39844,28.50781,29.20313,0,52.06152-11.25781a91.11834,91.11834,0,0,0,36.41748-31.67773L474.7251,216.24219q-26.39136,33.20361-68.06152,33.20117-22.74609,0-41.06152-10.07129a73.62644,73.62644,0,0,1-28.82324-28.30078,76.66418,76.66418,0,0,1-10.50293-38.89453q0-31.77393,22.83154-53.998Q371.93848,95.9541,406.48975,95.95313Z"/><rect class="cls-1" x="537.12939" y="4.86719" width="24.33594" height="262.13281"/><path class="cls-1" d="M737.814,4.86719a131.69366,131.69366,0,0,0-115.2373,67.09766,136.24943,136.24943,0,0,0-17.82812,68.31445q0,55.27734,39.13574,94.21484,39.13623,38.93994,96.01563,38.9375,56.18188,0,95.231-39.11133Q874.1814,195.209,874.18262,139.0625q0-56.666-39.13867-95.43164Q795.90845,4.86963,737.814,4.86719ZM833.56934,83.916c.69025,1.19739,1.34766,2.40826,1.98755,3.6264l-85.45221,48.27875a12.63322,12.63322,0,0,0-1.72144-1.65143l45.04718-89.75732c.06073.03473.12213.06641.18286.10126Q819.37769,59.30273,833.56934,83.916Zm13.96942,62.62988a109.83226,109.83226,0,0,1-11.72784,43.907l-83.12518-42.98663c.08569-.30359.16992-.60785.23291-.92041Zm-119.24188,0a12.40406,12.40406,0,0,0,.40576,1.48431l-82.84576,47.71124q-13.16318-21.94894-14.52356-49.19556Zm14.83252-14.83331V29.81073a107.50475,107.50475,0,0,1,45.90222,12.21869l-45.111,89.88483C743.65851,131.84265,743.398,131.76721,743.12939,131.71259Zm-5,24.644v92.20862q-26.074-.169-47.687-11.13458L736.723,155.98138A12.4896,12.4896,0,0,0,738.12939,156.35663Zm5-.0014a12.40817,12.40817,0,0,0,1.41669-.38293l45.69818,80.22681a108.89426,108.89426,0,0,1-47.11487,12.29651Zm-5-126.61731V131.71112a12.47287,12.47287,0,0,0-1.38812.36975L686.75818,43.60718A105.06924,105.06924,0,0,1,738.12939,29.73792ZM645.44629,84.35059a106.017,106.017,0,0,1,36.99945-38.21094l49.94617,88.40857a12.65809,12.65809,0,0,0-1.37817,1.38983L643.4422,88.049C644.0874,86.807,644.75018,85.57208,645.44629,84.35059Zm-4.20135,8.19513L728.60748,140.321a12.503,12.503,0,0,0-.31122,1.22491H631.18518c-.0047-.45129-.01477-.90015-.01477-1.35352A112.3261,112.3261,0,0,1,641.24493,92.54572Zm7.29071,107.422,82.67413-47.61243a12.62441,12.62441,0,0,0,1.16547,1.15649l-46.33618,81.547a115.41423,115.41423,0,0,1-37.50342-35.09106ZM794.6275,233.793l-45.74432-80.308a12.61486,12.61486,0,0,0,1.51465-1.57367l83.0473,42.94635A103.30612,103.30612,0,0,1,794.6275,233.793Zm53.09583-92.24713H752.91925a12.4947,12.4947,0,0,0-.36078-1.36884l85.2149-48.14368a109.8631,109.8631,0,0,1,9.98737,46.9422C847.76074,139.83728,847.74017,140.69086,847.72333,141.5459Z"/><path class="cls-1" d="M1017.49658,95.95313q43.2334,0,68.23438,33.20117l19.29492-11.99414a81.34835,81.34835,0,0,0-20.68555-23.4668q-12.167-9.21094-29.63672-14.94922a115.43522,115.43522,0,0,0-36.24414-5.73633q-29.89746,0-54.06055,13.21094a97.36843,97.36843,0,0,0-37.981,36.76465A99.07379,99.07379,0,0,0,912.59863,174.002q0,40.85156,29.55029,69.35742,29.54883,28.51025,74.39844,28.50781,29.20312,0,52.0625-11.25781a91.12062,91.12062,0,0,0,36.416-31.67773L1085.731,216.24219q-26.39062,33.20361-68.06055,33.20117-22.74609,0-41.0625-10.07129a73.62718,73.62718,0,0,1-28.82227-28.30078,76.66519,76.66519,0,0,1-10.50391-38.89453q0-31.77393,22.832-53.998Q982.94482,95.9541,1017.49658,95.95313Z"/><path class="cls-1" d="M1289.28467,166.17969q0,35.46094-3.65527,46.41211a50.25475,50.25475,0,0,1-19.58594,25.81348q-14.18994,9.82324-34.55664,9.82129-20.37012,0-35.07812-10.082a49.59723,49.59723,0,0,1-19.93262-27.46484q-3.4834-12.16553-3.48242-44.5V77.875h-24.33594v91.08594q0,40.33008,9.126,60.40527a69.14373,69.14373,0,0,0,27.63867,31.28906q18.5127,11.21191,46.15137,11.21191t45.97754-11.21191a69.70508,69.70508,0,0,0,27.46484-31.02832q9.126-19.81641,9.126-58.92773V77.875h-24.85742Z"/><path class="cls-1" d="M1407.314,81.09082q-12.34424,8.083-23.4668,24.42285V77.875h-24.85742V267h24.85742V203.03125q0-49.19092,4.51953-65.35937,5.90772-21.03076,17.209-31.02832,11.29688-9.99316,23.4668-9.99512,5.21484,0,12.86328,3.30273l12.68945-20.51172q-11.47266-6.4292-21.55469-6.43164Q1419.65332,73.00781,1407.314,81.09082Z"/><rect class="cls-1" x="1471.63037" y="77.875" width="24.33594" height="189.125"/><path class="cls-1" d="M1483.71143,0a19.10732,19.10732,0,0,0-14.02051,5.91016,19.4713,19.4713,0,0,0-5.88281,14.25391,19.26437,19.26437,0,0,0,5.88281,14.08008,19.09608,19.09608,0,0,0,14.02051,5.91016,19.29123,19.29123,0,0,0,14.19141-5.91016,19.26719,19.26719,0,0,0,5.88574-14.08008,19.474,19.474,0,0,0-5.88574-14.25391A19.30247,19.30247,0,0,0,1483.71143,0Z"/><path class="cls-1" d="M1711.66846,109.68555q-28.88232-36.67529-77.248-36.67773-46.97754,0-74.9873,35.80859a101.10021,101.10021,0,0,0-22.0957,64.14258q0,38.24414,26.09863,68.5752,26.09912,30.33545,72.37793,30.333,20.87549,0,37.4082-6.34473a92.55922,92.55922,0,0,0,29.752-18.5127q13.22461-12.16553,23.31445-31.98437L1705.77686,204.248q-11.13867,18.52881-20.71289,26.84082a73.92924,73.92924,0,0,1-23.23242,13.333,80.84687,80.84687,0,0,1-28.10645,5.02148q-29.937,0-50.29883-21.07129-20.36279-21.07031-21.05762-54.02246h170.17774Q1732.19629,135.58838,1711.66846,109.68555Zm-146.86621,43.63086q7.47949-26.07422,22.10352-39.11133,20.01123-17.90186,47.8623-17.9043a75.45118,75.45118,0,0,1,32.19629,7.127q15.31494,7.12939,24.627,18.77344,9.31348,11.64844,14.18555,31.11523Z"/><path class="cls-1" d="M1842.7544,73.00781q-13.38721,0-25.72656,8.083-12.34424,8.083-23.4668,24.42285V77.875h-24.85742V267H1793.561V203.03125q0-49.19092,4.51953-65.35937,5.90772-21.03076,17.209-31.02832,11.29688-9.99316,23.4668-9.99512,5.21484,0,12.86328,3.30273l12.68945-20.51172Q1852.83643,73.01025,1842.7544,73.00781Z"/></g></g></svg>