<svg xmlns="http://www.w3.org/2000/svg" width="213.36018" height="38.5812" viewBox="0 0 213.36018 38.5812"><defs><style>.cls-1{opacity:0.5;}.cls-2{fill:#00a4e6;}</style></defs><title>Logo-Foodpanda</title><g id="Layer_2" data-name="Layer 2"><g id="Aer_curat-section" data-name="Aer curat-section"><g id="layer1" class="cls-1"><g id="g1061"><g id="g1045"><path id="path1027" class="cls-2" d="M43.72539,12.003h3.062V9.06352c0-3.55192,1.95969-5.879,5.879-5.879l1.95969.36744V7.10384L52.54395,6.7364c-1.2248,0-1.71471.73488-1.71471,1.95968v3.307h3.91936V15.555H50.82923v14.6976H46.90988V15.555H43.72539Z"/><path id="path1029" class="cls-2" d="M64.66948,11.6356A9.48479,9.48479,0,0,1,74.22292,21.189a9.55344,9.55344,0,0,1-19.10689,0A9.40792,9.40792,0,0,1,64.66948,11.6356Zm0,15.555c3.6744,0,5.63409-2.69456,5.63409-6.00152s-1.95969-6.00152-5.63409-6.00152-5.63409,2.69456-5.63409,6.00152C59.03539,24.37352,60.99508,27.19056,64.66948,27.19056Z"/><path id="path1031" class="cls-2" d="M85.36859,11.6356A9.48479,9.48479,0,0,1,94.922,21.189a9.55344,9.55344,0,0,1-19.10689,0A9.48165,9.48165,0,0,1,85.36859,11.6356Zm0,15.555c3.6744,0,5.63409-2.69456,5.63409-6.00152s-1.95969-6.00152-5.63409-6.00152S79.7345,17.88208,79.7345,21.189C79.7345,24.37352,81.69419,27.19056,85.36859,27.19056Z"/><path id="path1033" class="cls-2" d="M115.2537,30.25256h-3.55191l-.36743-1.59224-.245-.245-.245.245A7.13538,7.13538,0,0,1,105.82272,30.62a9.28415,9.28415,0,0,1-9.30849-9.55344,9.28415,9.28415,0,0,1,9.30849-9.55344,6.92509,6.92509,0,0,1,5.02169,1.95968l.245.245.245-.245V3.307h3.91937ZM106.0677,15.065c-3.6744,0-5.63409,2.69456-5.63409,6.00152s1.95969,6.00152,5.63409,6.00152a5.7079,5.7079,0,0,0,5.63409-6.00152A5.78093,5.78093,0,0,0,106.0677,15.065Z"/><path id="path1035" class="cls-2" d="M119.17307,12.003H122.725l.36743,1.59224.245.245.245-.245A7.13538,7.13538,0,0,1,128.604,11.6356a9.28415,9.28415,0,0,1,9.30849,9.55344,9.28415,9.28415,0,0,1-9.30849,9.55344,6.92509,6.92509,0,0,1-5.02169-1.95968l-.245-.245-.245.245v9.7984h-3.79689V12.003Zm9.06351,15.18752c3.6744,0,5.63409-2.69456,5.63409-6.00152s-1.95969-6.00152-5.63409-6.00152A5.7079,5.7079,0,0,0,122.6025,21.189,5.78093,5.78093,0,0,0,128.23659,27.19056Z"/><path id="path1037" class="cls-2" d="M147.58841,18.86192h3.18449v-.85736c0-2.20464-1.46977-3.18448-3.55191-3.18448a3.42054,3.42054,0,0,0-3.42942,2.4496l-3.42946-.73488c.73489-3.062,3.42942-5.02168,6.98137-5.02168,4.8992,0,7.3488,2.4496,7.3488,7.22632V30.13008h-3.18449l-.36742-2.4496c-1.2248,1.8372-3.18449,2.69456-5.75657,2.69456-3.307,0-5.63409-1.95968-5.63409-5.63408C139.62721,21.189,142.8117,18.86192,147.58841,18.86192Zm-1.71471,8.32864a4.624,4.624,0,0,0,3.307-1.2248,4.27347,4.27347,0,0,0,1.46977-3.42944v-.36744h-3.307c-2.32711,0-3.79689,1.10232-3.79689,2.817A2.15574,2.15574,0,0,0,145.8737,27.19056Z"/><path id="path1039" class="cls-2" d="M158.1217,12.003h3.55191l.36743,1.59224.245.245.245-.245c.73489-1.2248,2.69457-1.95968,4.2868-1.95968,4.65422,0,7.3488,3.062,7.3488,7.3488V30.25255h-3.91937V18.9844c-.12249-2.4496-1.34729-3.91936-3.91937-3.91936a4.31538,4.31538,0,0,0-4.2868,4.16432v11.0232h-3.91937Z"/><path id="path1041" class="cls-2" d="M195.11067,30.25256h-3.55191l-.36742-1.59224-.245-.245-.245.245A7.13538,7.13538,0,0,1,185.67969,30.62a9.28415,9.28415,0,0,1-9.30849-9.55344,9.28415,9.28415,0,0,1,9.30849-9.55344,6.92509,6.92509,0,0,1,5.02169,1.95968l.245.245.245-.245V3.307h3.91937ZM186.04716,15.065c-3.6744,0-5.63409,2.69456-5.63409,6.00152s1.95969,6.00152,5.63409,6.00152a5.7079,5.7079,0,0,0,5.63409-6.00152A5.78093,5.78093,0,0,0,186.04716,15.065Z"/><path id="path1043" class="cls-2" d="M206.25636,18.86192h3.18449v-.85736c0-2.20464-1.46977-3.18448-3.55191-3.18448a3.42054,3.42054,0,0,0-3.42942,2.4496L199.03,16.5348c.73489-3.062,3.42942-5.02168,6.98137-5.02168,4.8992,0,7.3488,2.4496,7.3488,7.22632V30.13008h-3.18449l-.36742-2.4496c-1.2248,1.8372-3.18449,2.69456-5.75657,2.69456-3.307,0-5.63409-1.95968-5.63409-5.63408-.12249-3.55192,2.93951-5.879,7.83871-5.879Zm-1.71471,8.32864a4.624,4.624,0,0,0,3.307-1.2248,4.27347,4.27347,0,0,0,1.46977-3.42944v-.36744h-3.307c-2.32711,0-3.79689,1.10232-3.79689,2.817A2.15574,2.15574,0,0,0,204.54164,27.19056Z"/></g><g id="g1059"><path id="path1047" class="cls-2" d="M16.65731,24.496a3.83966,3.83966,0,0,0,4.04184-3.55192H12.61546A3.7632,3.7632,0,0,0,16.65731,24.496Z"/><g id="g1057"><path id="path1049" class="cls-2" d="M30.25259,7.59376a4.02622,4.02622,0,0,0,1.46976-3.307A4.28867,4.28867,0,0,0,27.31306,0a4.16952,4.16952,0,0,0-3.6744,1.95968A15.85687,15.85687,0,0,0,16.53482.36744,16.80272,16.80272,0,0,0,9.431,1.95968,4.16952,4.16952,0,0,0,5.75657,0,4.36625,4.36625,0,0,0,1.34729,4.2868,4.62589,4.62589,0,0,0,2.817,7.59376,15.97277,15.97277,0,0,0,0,16.77976a16.5348,16.5348,0,0,0,33.0696,0,15.69582,15.69582,0,0,0-2.817-9.186ZM16.65731,31.96728A15.264,15.264,0,0,1,1.46979,16.77976a15.70142,15.70142,0,0,1,2.57209-8.5736A14.4,14.4,0,0,1,10.04339,3.062a14.95713,14.95713,0,0,1,6.61391-1.46976A14.95707,14.95707,0,0,1,23.27122,3.062a16.24109,16.24109,0,0,1,6.00151,5.14416,15.70142,15.70142,0,0,1,2.57209,8.5736A15.264,15.264,0,0,1,16.65731,31.96728Z"/><path id="path1051" class="cls-2" d="M16.65731,19.96424c.245.12248,2.817-.85736,2.817-2.08216,0-.73488-2.08216-.85736-2.817-.85736s-2.817.12248-2.817.85736C13.71777,19.10688,16.41235,20.08672,16.65731,19.96424Z"/><path id="path1053" class="cls-2" d="M26.21075,9.67592c-1.46976-.97984-4.65424-1.46976-5.879.12248a2.49862,2.49862,0,0,0,0,3.42944,12.83415,12.83415,0,0,1,3.062,4.77672c.36744,1.46976.97984,1.95968,2.08216,1.95968s3.307-1.71472,3.6744-4.53176A6.1504,6.1504,0,0,0,26.21075,9.67592Zm-3.307,3.55192a.85736.85736,0,1,1,.85736-.85736A.8372.8372,0,0,1,22.90379,13.22784Z"/><path id="path1055" class="cls-2" d="M12.86044,9.7984c-1.2248-1.59224-4.40929-1.10232-5.879-.12248a6.2873,6.2873,0,0,0-2.93951,5.75656c.245,2.817,2.4496,4.53176,3.6744,4.53176,1.10231,0,1.71471-.6124,2.08216-1.95968a13.48555,13.48555,0,0,1,3.062-4.77672A2.46161,2.46161,0,0,0,12.86044,9.7984Zm-2.32711,3.42944a.85736.85736,0,1,1,.85736-.85736A.8372.8372,0,0,1,10.53332,13.22784Z"/></g></g></g></g></g></g></svg>