<svg xmlns="http://www.w3.org/2000/svg" width="450" height="700" viewBox="0 0 450 700"><defs><style>.cls-1{fill:#011821;}.cls-2,.cls-3{fill:#00a4e6;}.cls-2{opacity:0.2;}.cls-12,.cls-4{font-size:30px;}.cls-4{fill:#fff;font-family:Lato-Semibold, Lato;font-weight:700;}.cls-5{letter-spacing:-0.0085em;}.cls-6{letter-spacing:-0.01748em;}.cls-7{letter-spacing:-0.00947em;}.cls-8{letter-spacing:-0.00003em;}.cls-9{letter-spacing:-0.02498em;}.cls-10{letter-spacing:-0.00949em;}.cls-11{letter-spacing:-0.007em;}.cls-12{fill:#80dbff;font-family:Lato-Light, Lato;}.cls-13{letter-spacing:-0.00348em;}.cls-14{letter-spacing:-0.04899em;}.cls-15{letter-spacing:-0.02799em;}.cls-16{letter-spacing:-0.02152em;}.cls-17{letter-spacing:-0.0015em;}.cls-18{letter-spacing:-0.00002em;}.cls-19{letter-spacing:-0.02148em;}.cls-20{letter-spacing:-0.00648em;}.cls-21{letter-spacing:-0.01149em;}.cls-22{letter-spacing:-0.02399em;}.cls-23{letter-spacing:-0.01198em;}</style></defs><title>Testimoniale-Placeholder</title><g id="Layer_2" data-name="Layer 2"><g id="Testimoniale"><rect class="cls-1" width="450" height="700"/><circle class="cls-2" cx="225" cy="473.84882" r="80"/><path class="cls-3" d="M76.81152,100.01473A45.993,45.993,0,0,1,70.88232,84.963a42.42685,42.42685,0,0,1-.27393-15.416,42.97293,42.97293,0,0,1,5.33643-14.54883,45.9556,45.9556,0,0,1,10.90088-12.543l7.02393,4.28711a3.0214,3.0214,0,0,1,1.6416,2.91895,4.387,4.387,0,0,1-1.18555,2.7373A27.04484,27.04484,0,0,0,90.67676,58.419a30.38551,30.38551,0,0,0-2.41748,8.3916,33.19824,33.19824,0,0,0,.13721,9.94336A28.2917,28.2917,0,0,0,92.501,87.335q1.64209,2.647.9126,4.60645a4.6758,4.6758,0,0,1-3.01025,2.78223Zm30.28467,0A45.993,45.993,0,0,1,101.167,84.963a42.41584,42.41584,0,0,1-.27344-15.416,42.96151,42.96151,0,0,1,5.33594-14.54883,45.9556,45.9556,0,0,1,10.90088-12.543l7.02393,4.28711a3.02059,3.02059,0,0,1,1.6416,2.91895,4.387,4.387,0,0,1-1.18555,2.7373,27.06311,27.06311,0,0,0-3.64893,6.02051,30.36855,30.36855,0,0,0-2.417,8.3916,33.18144,33.18144,0,0,0,.13672,9.94336A28.2917,28.2917,0,0,0,122.78564,87.335q1.64209,2.647.9126,4.60645a4.6758,4.6758,0,0,1-3.01025,2.78223Z"/><circle class="cls-3" cx="225" cy="473.84882" r="75"/><text class="cls-4" transform="translate(121.53994 605.5081)"><tspan class="cls-5">P</tspan><tspan class="cls-6" x="18.05957" y="0">r</tspan><tspan x="28.60449" y="0">enume </tspan><tspan class="cls-7" x="126.50781" y="0">N</tspan><tspan class="cls-8" x="149.24805" y="0">ume</tspan></text><text class="cls-4" transform="translate(193.41909 464.5872)"><tspan class="cls-9">P</tspan><tspan class="cls-10" x="17.56494" y="0">o</tspan><tspan x="34.41016" y="0">za</tspan><tspan x="-7.49268" y="36">Clie</tspan><tspan class="cls-11" x="43.07129" y="36">n</tspan><tspan x="59.69141" y="36">t</tspan></text><text class="cls-12" transform="translate(188.61123 650.72392)"><tspan class="cls-13">F</tspan><tspan x="16.83008" y="0">irma</tspan></text><text class="cls-12" transform="translate(42.70009 170.92119)"><tspan class="cls-14">L</tspan><tspan x="13.70996" y="0">o</tspan><tspan class="cls-15" x="30.4502" y="0">r</tspan><tspan x="40.21484" y="0">em ipsum dolo</tspan><tspan class="cls-16" x="229.54297" y="0">r</tspan><tspan x="239.50195" y="0" xml:space="preserve"> sit am</tspan><tspan class="cls-17" x="324.16016" y="0">e</tspan><tspan x="339.75977" y="0">t, </tspan><tspan class="cls-10" x="0" y="36">c</tspan><tspan class="cls-18" x="13.86035" y="36">onsec</tspan><tspan class="cls-17" x="89.63867" y="36">te</tspan><tspan x="115.46973" y="36">tu</tspan><tspan class="cls-16" x="142.23047" y="36">r</tspan><tspan x="152.18945" y="36" xml:space="preserve"> adipiscing elit, </tspan><tspan x="0" y="72">sed do eiusmod </tspan><tspan class="cls-17" x="211.60352" y="72">t</tspan><tspan x="221.83398" y="72">empo</tspan><tspan class="cls-19" x="294.91309" y="72">r</tspan><tspan x="304.87305" y="72" xml:space="preserve"> in</tspan><tspan x="336.19238" y="72">-</tspan><tspan x="0" y="108">cididu</tspan><tspan class="cls-20" x="77.04004" y="108">n</tspan><tspan x="93.3457" y="108">t ut labo</tspan><tspan class="cls-15" x="201.09082" y="108">r</tspan><tspan x="210.85547" y="108">e </tspan><tspan class="cls-17" x="234.64453" y="108">e</tspan><tspan x="250.24414" y="108">t dolo</tspan><tspan class="cls-15" x="325.30469" y="108">r</tspan><tspan x="335.06934" y="108">e </tspan><tspan x="0" y="144">magna aliqua. </tspan><tspan class="cls-21" x="183.6416" y="144">U</tspan><tspan x="205.10645" y="144">t enim ad </tspan><tspan x="0" y="180">minim</tspan><tspan class="cls-22" x="78.14844" y="180"> </tspan><tspan class="cls-23" x="85.57324" y="180">v</tspan><tspan x="100.25879" y="180">eniam, quis nostrud </tspan></text></g></g></svg>