<svg xmlns="http://www.w3.org/2000/svg" width="30" height="30" viewBox="0 0 30 30"><defs><style>.cls-1{fill:#00a4e6;}</style></defs><title>Tab-wheel</title><g id="Layer_2" data-name="Layer 2"><g id="Header"><path class="cls-1" d="M25.64213,4.33008A14.747,14.747,0,0,0,14.81609,0a14.65514,14.65514,0,0,0-12.831,7.49517A15.25788,15.25788,0,0,0,0,15.12627,14.32207,14.32207,0,0,0,4.35754,25.65044,14.54861,14.54861,0,0,0,15.04838,30a14.39311,14.39311,0,0,0,10.60342-4.3689A14.51661,14.51661,0,0,0,30,14.99033,14.44216,14.44216,0,0,0,25.64213,4.33008ZM16.82706,15.65332a1.92511,1.92511,0,0,0,.08419-.30264h10.136a12.3993,12.3993,0,0,1-1.3548,5.43765ZM14.65049,27.21021a11.58736,11.58736,0,0,1-5.45537-1.42207l5.15347-8.95488a1.9033,1.9033,0,0,0,.3019.0854ZM13.174,14.34727a1.92753,1.92753,0,0,0-.08478.30205H2.95558A12.34524,12.34524,0,0,1,4.3452,9.2335ZM15.34955,2.78994a11.97354,11.97354,0,0,1,5.41274,1.4959l-5.11036,8.88a1.90815,1.90815,0,0,0-.30238-.08511ZM13.08889,15.35068a1.93369,1.93369,0,0,0,.10012.35332L4.45126,21.08569a11.83827,11.83827,0,0,1-1.499-5.735Zm3.822-.70137a1.94573,1.94573,0,0,0-.10031-.353l8.71846-5.36982a12.05769,12.05769,0,0,1,1.51926,5.72285ZM25.16627,8.3269,16.4432,13.69966a1.94142,1.94142,0,0,0-.187-.1812L21.36716,4.6374A11.78852,11.78852,0,0,1,25.16627,8.3269ZM14.65049,2.78628V13.08135a1.93717,1.93717,0,0,0-.35237.10137L8.944,4.4335l.00762-.00483A11.71205,11.71205,0,0,1,14.65049,2.78628ZM8.351,4.80469,13.70438,13.553a1.95245,1.95245,0,0,0-.17963.1875L4.68823,8.62236A11.7851,11.7851,0,0,1,8.351,4.80469ZM4.81366,21.6854,13.557,16.3002a1.93917,1.93917,0,0,0,.18706.18091L8.597,25.42485a12.5818,12.5818,0,0,1-2.13677-1.70918A12.39561,12.39561,0,0,1,4.81366,21.6854Zm10.53589,5.52539V16.91924a1.91966,1.91966,0,0,0,.35325-.10063l5.37861,8.7895-.004.00234A12.10562,12.10562,0,0,1,15.34955,27.21079Zm6.32787-1.96934L16.2969,16.449a1.94406,1.94406,0,0,0,.1804-.18838l8.8771,5.14175A11.46347,11.46347,0,0,1,21.67742,25.24146Z"/></g></g></svg>